<svg xmlns="http://www.w3.org/2000/svg" width="49.95" height="49.121" viewBox="0 0 49.95 49.121">
  <g id="Group_8880" data-name="Group 8880" transform="translate(0.5 0.5)">
    <path id="Union_2" data-name="Union 2" d="M2.356,48.121H2.349a1.837,1.837,0,0,1-1.9-1.913V40.5l.013-.016L0,18.5a2.4,2.4,0,0,1,2.345-2.447l5.276-.11a.463.463,0,0,1,.05,0,2.4,2.4,0,0,1,2.4,2.35l.224,10.729L34.747.662A1.608,1.608,0,0,1,36.193,0h7.021s3.078.5,1.43,3.181L5.445,47.475a2.411,2.411,0,0,1-1.43.645Zm19.626-.139a2.182,2.182,0,0,1-1.818-.972L15.6,40.152a2.19,2.19,0,0,1,.188-2.67l3.24-3.631a2.185,2.185,0,0,1,3.385.155l7.771,10.487a2.184,2.184,0,0,1-1.753,3.488ZM37.1,42.72a1.652,1.652,0,0,1-1.652-1.654V34.936H29.319a1.652,1.652,0,0,1-1.652-1.654V30.856A1.654,1.654,0,0,1,29.319,29.2h6.125V23.072A1.652,1.652,0,0,1,37.1,21.418H39.52a1.654,1.654,0,0,1,1.654,1.654V29.2H47.3a1.654,1.654,0,0,1,1.652,1.655v2.426A1.652,1.652,0,0,1,47.3,34.936H41.173v6.131A1.654,1.654,0,0,1,39.52,42.72Z" fill="#fff" stroke="rgba(0,0,0,0)" stroke-width="1"/>
  </g>
</svg>
