<svg xmlns="http://www.w3.org/2000/svg" xmlns:xlink="http://www.w3.org/1999/xlink" width="435.494" height="278.672" viewBox="0 0 435.494 278.672">
  <defs>
    <linearGradient id="linear-gradient" x1="0.5" x2="0.5" y2="1" gradientUnits="objectBoundingBox">
      <stop offset="0" stop-color="#9f31f6"/>
      <stop offset="1" stop-color="#9f31f6"/>
    </linearGradient>
  </defs>
  <g id="Group_17795" data-name="Group 17795" transform="translate(-86.334 -50.155)">
    <g id="Background_Complete" data-name="Background Complete" transform="translate(101.783 61.166)">
      <g id="Group_17565" data-name="Group 17565" transform="translate(0 35.426)">
        <g id="Group_17549" data-name="Group 17549">
          <rect id="Rectangle_1405" data-name="Rectangle 1405" width="97.727" height="143.9" transform="matrix(0.831, -0.556, 0.556, 0.831, 0, 54.333)" fill="#f5f5f5"/>
        </g>
        <g id="Group_17552" data-name="Group 17552" transform="translate(77.965 93.586)">
          <g id="Group_17550" data-name="Group 17550" transform="translate(0 14.535)">
            <path id="Path_6721" data-name="Path 6721" d="M256.671,277.441l-.922,5.705-40.381-5.817.922-5.705Z" transform="translate(-215.368 -271.624)" fill="#e0e0e0"/>
          </g>
          <g id="Group_17551" data-name="Group 17551" transform="translate(14.542)">
            <path id="Path_6722" data-name="Path 6722" d="M241.879,251.546l5.795.835-6.425,39.758-5.795-.835Z" transform="translate(-235.454 -251.546)" fill="#e0e0e0"/>
          </g>
        </g>
        <g id="Group_17554" data-name="Group 17554" transform="translate(87.448 45.406)">
          <g id="Group_17553" data-name="Group 17553">
            <path id="Path_6723" data-name="Path 6723" d="M228.466,184.995" transform="translate(-228.466 -184.995)" fill="none" stroke="#fff" stroke-width="1"/>
          </g>
        </g>
        <g id="Group_17556" data-name="Group 17556" transform="translate(25.166 43.052)">
          <g id="Group_17555" data-name="Group 17555">
            <path id="Path_6724" data-name="Path 6724" d="M179.007,181.745c.058.087-8.083,5.633-18.18,12.387s-18.333,12.161-18.391,12.074,8.081-5.632,18.181-12.388S178.949,181.658,179.007,181.745Z" transform="translate(-142.436 -181.744)" fill="#e0e0e0"/>
          </g>
        </g>
        <g id="Group_17558" data-name="Group 17558" transform="translate(30.934 35.554)">
          <g id="Group_17557" data-name="Group 17557">
            <path id="Path_6725" data-name="Path 6725" d="M211.08,171.387c.058.087-13.479,9.243-30.232,20.447S150.461,212.057,150.4,211.97s13.476-9.24,30.235-20.45S211.022,171.3,211.08,171.387Z" transform="translate(-150.403 -171.386)" fill="#e0e0e0"/>
          </g>
        </g>
        <g id="Group_17560" data-name="Group 17560" transform="translate(36.922 44.506)">
          <g id="Group_17559" data-name="Group 17559">
            <path id="Path_6726" data-name="Path 6726" d="M219.351,183.753c.058.087-13.479,9.243-30.232,20.448s-30.387,20.222-30.445,20.136,13.476-9.241,30.235-20.45S219.293,183.667,219.351,183.753Z" transform="translate(-158.675 -183.752)" fill="#e0e0e0"/>
          </g>
        </g>
        <g id="Group_17562" data-name="Group 17562" transform="translate(42.91 53.459)">
          <g id="Group_17561" data-name="Group 17561">
            <path id="Path_6727" data-name="Path 6727" d="M227.622,196.12c.058.086-13.479,9.242-30.232,20.447S167,236.79,166.946,236.7s13.476-9.241,30.235-20.45S227.564,196.033,227.622,196.12Z" transform="translate(-166.946 -196.119)" fill="#e0e0e0"/>
          </g>
        </g>
        <g id="Group_17564" data-name="Group 17564" transform="translate(48.898 62.412)">
          <g id="Group_17563" data-name="Group 17563">
            <path id="Path_6728" data-name="Path 6728" d="M235.894,208.486c.058.087-13.479,9.243-30.232,20.447s-30.387,20.223-30.445,20.136,13.476-9.24,30.235-20.449S235.836,208.4,235.894,208.486Z" transform="translate(-175.217 -208.485)" fill="#e0e0e0"/>
          </g>
        </g>
      </g>
      <g id="Group_17582" data-name="Group 17582" transform="translate(284.635 115.588)">
        <g id="Group_17566" data-name="Group 17566" transform="translate(0 0)">
          <rect id="Rectangle_1406" data-name="Rectangle 1406" width="82.074" height="120.851" transform="translate(0 45.63) rotate(-33.777)" fill="#f5f5f5"/>
        </g>
        <g id="Group_17569" data-name="Group 17569" transform="translate(65.478 78.597)">
          <g id="Group_17567" data-name="Group 17567" transform="translate(0 12.207)">
            <path id="Path_6729" data-name="Path 6729" d="M625.973,363.317l-.774,4.791-33.913-4.886.774-4.791Z" transform="translate(-591.285 -358.431)" fill="#e0e0e0"/>
          </g>
          <g id="Group_17568" data-name="Group 17568" transform="translate(12.213)">
            <path id="Path_6730" data-name="Path 6730" d="M613.55,341.569l4.866.7-5.4,33.39-4.866-.7Z" transform="translate(-608.155 -341.569)" fill="#e0e0e0"/>
          </g>
        </g>
        <g id="Group_17571" data-name="Group 17571" transform="translate(73.441 38.134)">
          <g id="Group_17570" data-name="Group 17570">
            <path id="Path_6731" data-name="Path 6731" d="M602.285,285.678" transform="translate(-602.285 -285.678)" fill="none" stroke="#fff" stroke-width="1"/>
          </g>
        </g>
        <g id="Group_17573" data-name="Group 17573" transform="translate(21.135 36.156)">
          <g id="Group_17572" data-name="Group 17572">
            <path id="Path_6732" data-name="Path 6732" d="M560.749,282.948c.058.087-6.771,4.756-15.252,10.428s-15.4,10.2-15.462,10.115,6.77-4.754,15.253-10.429S560.691,282.861,560.749,282.948Z" transform="translate(-530.034 -282.946)" fill="#e0e0e0"/>
          </g>
        </g>
        <g id="Group_17575" data-name="Group 17575" transform="translate(25.979 29.859)">
          <g id="Group_17574" data-name="Group 17574">
            <path id="Path_6733" data-name="Path 6733" d="M587.684,274.249c.058.087-11.3,7.788-25.372,17.2s-25.527,16.972-25.585,16.886,11.3-7.785,25.375-17.2S587.626,274.163,587.684,274.249Z" transform="translate(-536.726 -274.248)" fill="#e0e0e0"/>
          </g>
        </g>
        <g id="Group_17577" data-name="Group 17577" transform="translate(31.008 37.378)">
          <g id="Group_17576" data-name="Group 17576">
            <path id="Path_6734" data-name="Path 6734" d="M594.631,284.635c.058.086-11.3,7.787-25.373,17.2s-25.527,16.972-25.585,16.886,11.3-7.785,25.375-17.2S594.573,284.548,594.631,284.635Z" transform="translate(-543.673 -284.634)" fill="#e0e0e0"/>
          </g>
        </g>
        <g id="Group_17579" data-name="Group 17579" transform="translate(36.037 44.896)">
          <g id="Group_17578" data-name="Group 17578">
            <path id="Path_6735" data-name="Path 6735" d="M601.577,295.02c.058.087-11.3,7.788-25.373,17.2S550.677,329.19,550.619,329.1s11.3-7.785,25.375-17.2S601.519,294.934,601.577,295.02Z" transform="translate(-550.619 -295.019)" fill="#e0e0e0"/>
          </g>
        </g>
        <g id="Group_17581" data-name="Group 17581" transform="translate(41.066 52.415)">
          <g id="Group_17580" data-name="Group 17580">
            <path id="Path_6736" data-name="Path 6736" d="M608.524,305.406c.058.087-11.3,7.787-25.373,17.2s-25.527,16.972-25.585,16.886,11.3-7.785,25.375-17.2S608.466,305.32,608.524,305.406Z" transform="translate(-557.566 -305.405)" fill="#e0e0e0"/>
          </g>
        </g>
      </g>
      <g id="Group_17599" data-name="Group 17599" transform="translate(111.874)">
        <g id="Group_17583" data-name="Group 17583" transform="translate(0)">
          <rect id="Rectangle_1407" data-name="Rectangle 1407" width="84.413" height="124.295" transform="matrix(0.882, 0.472, -0.472, 0.882, 58.618, 0)" fill="#f5f5f5"/>
        </g>
        <g id="Group_17586" data-name="Group 17586" transform="translate(36.023 81.989)">
          <g id="Group_17584" data-name="Group 17584" transform="translate(8.96)">
            <path id="Path_6737" data-name="Path 6737" d="M341.051,219.732l-4.723,1.617-11.987-33.138,4.723-1.617Z" transform="translate(-324.341 -186.594)" fill="#e0e0e0"/>
          </g>
          <g id="Group_17585" data-name="Group 17585" transform="translate(0 9.365)">
            <path id="Path_6738" data-name="Path 6738" d="M344.875,199.529l1.72,4.755-32.91,11.271-1.72-4.755Z" transform="translate(-311.964 -199.529)" fill="#e0e0e0"/>
          </g>
        </g>
        <g id="Group_17588" data-name="Group 17588" transform="translate(100.98 63.011)">
          <g id="Group_17587" data-name="Group 17587">
            <path id="Path_6739" data-name="Path 6739" d="M401.689,160.379" transform="translate(-401.689 -160.379)" fill="none" stroke="#fff" stroke-width="1"/>
          </g>
        </g>
        <g id="Group_17590" data-name="Group 17590" transform="translate(58.806 24.536)">
          <g id="Group_17589" data-name="Group 17589">
            <path id="Path_6740" data-name="Path 6740" d="M376.946,125.158c-.058.109-7.608-3.815-16.86-8.763s-16.71-9.05-16.652-9.159S351.04,111.051,360.3,116,377,125.05,376.946,125.158Z" transform="translate(-343.434 -107.234)" fill="#e0e0e0"/>
          </g>
        </g>
        <g id="Group_17592" data-name="Group 17592" transform="translate(54.58 32.44)">
          <g id="Group_17591" data-name="Group 17591">
            <path id="Path_6741" data-name="Path 6741" d="M393.2,147.888c-.058.109-12.553-6.46-27.9-14.67s-27.754-14.957-27.7-15.066,12.55,6.458,27.906,14.671S393.255,147.779,393.2,147.888Z" transform="translate(-337.597 -118.151)" fill="#e0e0e0"/>
          </g>
        </g>
        <g id="Group_17594" data-name="Group 17594" transform="translate(50.192 40.643)">
          <g id="Group_17593" data-name="Group 17593">
            <path id="Path_6742" data-name="Path 6742" d="M387.136,159.22c-.059.109-12.553-6.46-27.9-14.67s-27.754-14.957-27.7-15.066,12.551,6.458,27.907,14.672S387.194,159.111,387.136,159.22Z" transform="translate(-331.536 -129.482)" fill="#e0e0e0"/>
          </g>
        </g>
        <g id="Group_17596" data-name="Group 17596" transform="translate(45.805 48.847)">
          <g id="Group_17595" data-name="Group 17595">
            <path id="Path_6743" data-name="Path 6743" d="M381.076,170.551c-.058.109-12.553-6.46-27.9-14.67s-27.754-14.957-27.7-15.066,12.55,6.458,27.907,14.672S381.134,170.443,381.076,170.551Z" transform="translate(-325.476 -140.814)" fill="#e0e0e0"/>
          </g>
        </g>
        <g id="Group_17598" data-name="Group 17598" transform="translate(41.417 57.051)">
          <g id="Group_17597" data-name="Group 17597">
            <path id="Path_6744" data-name="Path 6744" d="M375.015,181.883c-.059.109-12.553-6.46-27.9-14.67s-27.754-14.957-27.7-15.066,12.551,6.458,27.907,14.672S375.073,181.775,375.015,181.883Z" transform="translate(-319.415 -152.146)" fill="#e0e0e0"/>
          </g>
        </g>
      </g>
    </g>
    <g id="Floor" transform="translate(86.334 326.298)">
      <g id="Group_17604" data-name="Group 17604">
        <g id="Group_17603" data-name="Group 17603">
          <path id="Path_6746" data-name="Path 6746" d="M504.3,439.756c0,.1-93.571.189-208.971.189-115.44,0-208.992-.085-208.992-.189s93.552-.188,208.992-.188C410.726,439.568,504.3,439.653,504.3,439.756Z" transform="translate(-86.334 -439.568)" fill="#263238"/>
        </g>
      </g>
    </g>
    <g id="Plant" transform="translate(101.783 281.147)">
      <g id="Group_17614" data-name="Group 17614">
        <g id="Group_17605" data-name="Group 17605" transform="translate(5.006)">
          <path id="Path_6747" data-name="Path 6747" d="M117.266,377.2a9.126,9.126,0,0,1,6.36,3.257,16.111,16.111,0,0,1,3.238,6.524c1.225,4.578.472,9.98-.834,14.536-4.955-1.772-8.012-7.057-9.394-9.836-2.184-4.392-3.465-13.655.631-14.481" transform="translate(-114.589 -377.201)" fill="#9f31f6"/>
        </g>
        <g id="Group_17606" data-name="Group 17606" transform="translate(22.34 16.737)">
          <path id="Path_6748" data-name="Path 6748" d="M139.77,413.448a7.786,7.786,0,0,1-.365-7.809,10.342,10.342,0,0,1,6.227-5,4.355,4.355,0,0,1,3.665.175,3.331,3.331,0,0,1,1.281,3.122,6.746,6.746,0,0,1-1.425,3.2c-2.409,3.263-5.341,5.978-9.382,6.313" transform="translate(-138.532 -400.32)" fill="#9f31f6"/>
        </g>
        <g id="Group_17608" data-name="Group 17608" transform="translate(22.681 22.269)">
          <g id="Group_17607" data-name="Group 17607">
            <path id="Path_6749" data-name="Path 6749" d="M140.445,430.855a5.47,5.47,0,0,1-.222-.951l-.51-2.609a27.324,27.324,0,0,1-.542-8.763,16.725,16.725,0,0,1,3.251-8.121,11.393,11.393,0,0,1,1.88-1.9,7,7,0,0,1,.59-.424c.138-.091.214-.134.221-.124a17.855,17.855,0,0,0-2.5,2.6,17.27,17.27,0,0,0-3.1,8.02,29.422,29.422,0,0,0,.441,8.674c.177,1.108.321,2.005.4,2.629A5.157,5.157,0,0,1,140.445,430.855Z" transform="translate(-139.003 -407.961)" fill="#9f31f6"/>
          </g>
        </g>
        <g id="Group_17610" data-name="Group 17610" transform="translate(9.279 6.968)">
          <g id="Group_17609" data-name="Group 17609">
            <path id="Path_6750" data-name="Path 6750" d="M120.493,386.826a2,2,0,0,1,.2.376l.511,1.1c.438.961,1.053,2.359,1.8,4.093,1.493,3.467,3.489,8.286,5.572,13.656s3.858,10.278,5.093,13.846c.618,1.783,1.105,3.23,1.43,4.235.15.476.271.86.366,1.159a1.929,1.929,0,0,1,.106.412,2.025,2.025,0,0,1-.171-.389l-.428-1.137-1.532-4.2c-1.293-3.545-3.1-8.433-5.184-13.8s-4.041-10.2-5.476-13.686l-1.7-4.134c-.185-.463-.334-.838-.451-1.129A1.969,1.969,0,0,1,120.493,386.826Z" transform="translate(-120.492 -386.826)" fill="#9f31f6"/>
          </g>
        </g>
        <g id="Group_17611" data-name="Group 17611" transform="translate(0 26.239)">
          <path id="Path_6751" data-name="Path 6751" d="M125.914,422.247a18.209,18.209,0,0,0-14.133-8.781c-1.465-.106-3.227.14-3.88,1.455s.221,2.878,1.218,3.959a15.56,15.56,0,0,0,16.849,3.761" transform="translate(-107.674 -413.445)" fill="#9f31f6"/>
        </g>
        <g id="Group_17613" data-name="Group 17613" transform="translate(6.338 30.171)">
          <g id="Group_17612" data-name="Group 17612">
            <path id="Path_6752" data-name="Path 6752" d="M116.429,418.888a4.746,4.746,0,0,1,.917.034,8.884,8.884,0,0,1,1.07.124c.413.077.893.122,1.4.264a16.125,16.125,0,0,1,1.669.464,18.11,18.11,0,0,1,1.862.707,20.279,20.279,0,0,1,3.922,2.325,19.849,19.849,0,0,1,3.242,3.208,17.324,17.324,0,0,1,1.142,1.633,14.565,14.565,0,0,1,.849,1.512,13.472,13.472,0,0,1,.583,1.3,8.208,8.208,0,0,1,.364,1.014,4.762,4.762,0,0,1,.239.886c-.073.026-.426-1.24-1.4-3.093a15.911,15.911,0,0,0-.874-1.47,18.338,18.338,0,0,0-1.149-1.588,20.591,20.591,0,0,0-3.2-3.133,21.047,21.047,0,0,0-3.842-2.309,18.891,18.891,0,0,0-1.822-.726,17.056,17.056,0,0,0-1.637-.5C117.731,419.033,116.421,418.962,116.429,418.888Z" transform="translate(-116.429 -418.876)" fill="#9f31f6"/>
          </g>
        </g>
      </g>
    </g>
    <g id="Character" transform="translate(378.781 57.36)">
      <g id="Group_17780" data-name="Group 17780">
        <g id="Group_17618" data-name="Group 17618" transform="translate(47.12 25.567)">
          <g id="Group_17615" data-name="Group 17615">
            <path id="Path_6753" data-name="Path 6753" d="M566.225,104.9c-2.128.49-3.165,2.939-3.367,5.115s.076,4.472-.838,6.456c-1.028,2.233-3.484,3.88-3.565,6.337-.05,1.5.84,2.907.8,4.405-.07,2.461-2.579,4.321-2.711,6.779-.095,1.77,1.084,3.469.8,5.219-.221,1.362-1.281,2.435-1.729,3.739-.894,2.6.893,5.464,3.221,6.929a10.557,10.557,0,0,0,15.382-4.915c1.288-3.127,1.006-6.647.727-10.017Q573.634,119.2,573,103.4" transform="translate(-555.378 -103.399)" fill="#263238"/>
          </g>
          <g id="Group_17617" data-name="Group 17617" transform="translate(4.664 2.335)">
            <g id="Group_17616" data-name="Group 17616">
              <path id="Path_6754" data-name="Path 6754" d="M561.823,142.851a2.553,2.553,0,0,0,.973-1.157,4.107,4.107,0,0,0,.248-1.767,9.788,9.788,0,0,0-.528-2.344,6.689,6.689,0,0,1-.378-2.968,6.77,6.77,0,0,1,1.725-2.963,6.607,6.607,0,0,0,.977-1.486,2.4,2.4,0,0,0,.114-1.736c-.374-1.183-1.533-2.053-2.065-3.418a3.689,3.689,0,0,1-.117-2.113,8.575,8.575,0,0,1,.7-1.9,16.22,16.22,0,0,0,1.439-3.406c.508-2.3.271-4.489.617-6.289a6.982,6.982,0,0,1,1.83-3.858,4.124,4.124,0,0,1,.957-.682,1.651,1.651,0,0,1,.383-.143,5.849,5.849,0,0,0-1.236.929,7.044,7.044,0,0,0-1.672,3.8,23.706,23.706,0,0,0-.2,2.926,17.886,17.886,0,0,1-.34,3.4,16.155,16.155,0,0,1-1.443,3.486,4.762,4.762,0,0,0-.562,3.718c.46,1.232,1.626,2.107,2.063,3.439a2.764,2.764,0,0,1-.135,1.99,6.916,6.916,0,0,1-1.038,1.562,4.748,4.748,0,0,0-1.361,5.639,9.658,9.658,0,0,1,.482,2.408,4.131,4.131,0,0,1-.324,1.835,2.2,2.2,0,0,1-.742.914A1.2,1.2,0,0,1,561.823,142.851Z" transform="translate(-561.821 -106.624)" fill="#455a64"/>
            </g>
          </g>
        </g>
        <path id="Path_6755" data-name="Path 6755" d="M539.335,180.366,532.8,199.2l-27.252,1.461L501,210.778l28.451,2.879a10.75,10.75,0,0,0,14.227-6.309l7.593-21.194Z" transform="translate(-493.248 -99.079)" fill="#b78876"/>
        <g id="Group_17623" data-name="Group 17623" transform="translate(51.813 134.083)">
          <g id="Group_17621" data-name="Group 17621">
            <g id="Group_17619" data-name="Group 17619">
              <path id="Path_6756" data-name="Path 6756" d="M612.5,378.106s-19.972-63.431-20.4-65.491c-.383-1.861,7.248-47.508,8.209-59.322L573.333,254.3l0,.2-11.47.636L572.133,384.86h12.418l-1.231-43.04a419.186,419.186,0,0,0,18.63,41.508Z" transform="translate(-561.86 -253.293)" fill="#b78876"/>
            </g>
            <g id="Group_17620" data-name="Group 17620" transform="translate(17.165 76.557)">
              <path id="Path_6757" data-name="Path 6757" d="M590.372,386.437c.011-.394-.151-14.42-.151-14.42-.155.839-4.761-12.179-4.649-12.97C585.629,358.637,590.372,386.437,590.372,386.437Z" transform="translate(-585.57 -359.042)" fill="#a36957"/>
            </g>
          </g>
          <g id="Group_17622" data-name="Group 17622" transform="translate(16.542 70.399)">
            <path id="Path_6758" data-name="Path 6758" d="M584.809,350.535a2.905,2.905,0,0,0-.08.786,20.728,20.728,0,0,0,.017,2.15c.017.455.064.951.124,1.483s.14,1.1.264,1.69a28.831,28.831,0,0,0,1.015,3.779c.9,2.624,1.9,4.919,2.6,6.585l.864,1.961a2.9,2.9,0,0,0,.368.7,2.963,2.963,0,0,0-.219-.759c-.167-.479-.42-1.166-.743-2.01-.638-1.693-1.589-4.006-2.483-6.607a32.773,32.773,0,0,1-1.033-3.723c-.131-.578-.215-1.137-.3-1.659s-.136-1.011-.172-1.46c-.085-.9-.124-1.626-.146-2.131A2.939,2.939,0,0,0,584.809,350.535Z" transform="translate(-584.709 -350.535)" fill="#a36957"/>
          </g>
        </g>
        <g id="Group_17655" data-name="Group 17655" transform="translate(53.305 264.57)">
          <g id="Group_17654" data-name="Group 17654" transform="translate(0 0)">
            <g id="Group_17625" data-name="Group 17625" transform="translate(0.001)">
              <g id="Group_17624" data-name="Group 17624">
                <path id="Path_6759" data-name="Path 6759" d="M572.469,435.254l-.005-1.166,12.72-.554.035,4.811-.785.053c-3.491.2-17.767.793-20.1.093C561.724,437.708,572.469,435.254,572.469,435.254Z" transform="translate(-563.923 -433.534)" fill="#455a64"/>
              </g>
            </g>
            <g id="Group_17627" data-name="Group 17627" transform="translate(0 4.512)">
              <g id="Group_17626" data-name="Group 17626">
                <path id="Path_6760" data-name="Path 6760" d="M585.4,439.773a1.11,1.11,0,0,1-.217.025l-.625.04-2.3.108c-1.942.077-4.628.147-7.594.161s-5.653-.035-7.6-.095l-2.3-.087-.625-.035a1.108,1.108,0,0,1-.218-.022,1.2,1.2,0,0,1,.219-.008l.626.006,2.3.038c1.943.032,4.628.062,7.593.049s5.648-.067,7.591-.116l2.3-.059.625-.012A1.2,1.2,0,0,1,585.4,439.773Z" transform="translate(-563.921 -439.767)" fill="#263238"/>
              </g>
            </g>
            <g id="Group_17629" data-name="Group 17629" transform="translate(3.205 2.951)">
              <g id="Group_17628" data-name="Group 17628">
                <path id="Path_6761" data-name="Path 6761" d="M569.57,439.589a3.343,3.343,0,0,0-1.221-1.974,2.043,2.043,0,0,1,1.221,1.974Z" transform="translate(-568.349 -437.61)" fill="#263238"/>
              </g>
            </g>
            <g id="Group_17631" data-name="Group 17631" transform="translate(7.476 1.969)">
              <g id="Group_17630" data-name="Group 17630">
                <path id="Path_6762" data-name="Path 6762" d="M574.926,437.306c-.036.022-.216-.194-.4-.484s-.307-.544-.272-.566.215.193.4.484S574.962,437.283,574.926,437.306Z" transform="translate(-574.247 -436.254)" fill="#263238"/>
              </g>
            </g>
            <g id="Group_17633" data-name="Group 17633" transform="translate(8.382 1.765)">
              <g id="Group_17632" data-name="Group 17632">
                <path id="Path_6763" data-name="Path 6763" d="M576.294,436.682c-.028.032-.228-.1-.447-.3s-.374-.379-.345-.41.229.1.447.3S576.322,436.651,576.294,436.682Z" transform="translate(-575.498 -435.971)" fill="#263238"/>
              </g>
            </g>
            <g id="Group_17635" data-name="Group 17635" transform="translate(8.498 1.211)">
              <g id="Group_17634" data-name="Group 17634">
                <path id="Path_6764" data-name="Path 6764" d="M576.982,435.274a1.477,1.477,0,0,1-.66.087,1.5,1.5,0,0,1-.662-.067,1.487,1.487,0,0,1,.66-.087A1.506,1.506,0,0,1,576.982,435.274Z" transform="translate(-575.66 -435.207)" fill="#263238"/>
              </g>
            </g>
            <g id="Group_17637" data-name="Group 17637" transform="translate(8.543 0.423)">
              <g id="Group_17636" data-name="Group 17636">
                <path id="Path_6765" data-name="Path 6765" d="M577.218,434.131a1.864,1.864,0,0,1-1.5.118,4.141,4.141,0,0,1,.749-.054A4.09,4.09,0,0,1,577.218,434.131Z" transform="translate(-575.721 -434.119)" fill="#263238"/>
              </g>
            </g>
            <g id="Group_17639" data-name="Group 17639" transform="translate(5.334 0.787)">
              <g id="Group_17638" data-name="Group 17638">
                <path id="Path_6766" data-name="Path 6766" d="M573.676,435.753a2.334,2.334,0,0,1-.813,0,4.77,4.77,0,0,1-.867-.187,2.378,2.378,0,0,1-.5-.2.437.437,0,0,1-.2-.251.319.319,0,0,1,.122-.326,1.491,1.491,0,0,1,1.845.429,1.447,1.447,0,0,1,.267.542.46.46,0,0,1,.022.22,2.308,2.308,0,0,0-.374-.693,1.465,1.465,0,0,0-.7-.449,1.265,1.265,0,0,0-.969.07c-.129.1-.078.248.066.333a2.47,2.47,0,0,0,.458.194,5.631,5.631,0,0,0,.838.214C573.366,435.728,573.676,435.728,573.676,435.753Z" transform="translate(-571.288 -434.621)" fill="#263238"/>
              </g>
            </g>
            <g id="Group_17641" data-name="Group 17641" transform="translate(7.408 0.383)">
              <g id="Group_17640" data-name="Group 17640">
                <path id="Path_6767" data-name="Path 6767" d="M574.256,435.64a.8.8,0,0,1-.1-.564,1.326,1.326,0,0,1,.22-.6.815.815,0,0,1,.675-.417.324.324,0,0,1,.252.374.9.9,0,0,1-.137.364,2.447,2.447,0,0,1-.382.493,1.17,1.17,0,0,1-.464.331c-.015-.02.161-.146.384-.4a2.847,2.847,0,0,0,.339-.489c.111-.172.186-.481-.018-.518-.2-.019-.411.185-.534.347a1.353,1.353,0,0,0-.228.53A3.046,3.046,0,0,0,574.256,435.64Z" transform="translate(-574.154 -434.063)" fill="#263238"/>
              </g>
            </g>
            <g id="Group_17643" data-name="Group 17643" transform="translate(16.718 0.975)">
              <g id="Group_17642" data-name="Group 17642">
                <path id="Path_6768" data-name="Path 6768" d="M591.5,434.964c0,.028-.363-.033-.934.036a3.963,3.963,0,0,0-3.306,2.654c-.191.543-.209.908-.237.9a.72.72,0,0,1,0-.255,3.318,3.318,0,0,1,.135-.683,3.844,3.844,0,0,1,3.4-2.728,3.326,3.326,0,0,1,.7.015A.717.717,0,0,1,591.5,434.964Z" transform="translate(-587.014 -434.881)" fill="#263238"/>
              </g>
            </g>
            <g id="Group_17645" data-name="Group 17645" transform="translate(11.414 3.495)">
              <g id="Group_17644" data-name="Group 17644">
                <path id="Path_6769" data-name="Path 6769" d="M583.386,438.378a10.4,10.4,0,0,1-3.7.02c0-.045.83.009,1.85,0S583.381,438.334,583.386,438.378Z" transform="translate(-579.687 -438.362)" fill="#263238"/>
              </g>
            </g>
            <g id="Group_17647" data-name="Group 17647" transform="translate(17.232 3.48)">
              <g id="Group_17646" data-name="Group 17646">
                <path id="Path_6770" data-name="Path 6770" d="M588.084,438.345c.03.03-.067.175-.151.365s-.129.358-.172.356-.066-.2.033-.418S588.056,438.315,588.084,438.345Z" transform="translate(-587.724 -438.34)" fill="#263238"/>
              </g>
            </g>
            <g id="Group_17649" data-name="Group 17649" transform="translate(18.044 2.311)">
              <g id="Group_17648" data-name="Group 17648">
                <path id="Path_6771" data-name="Path 6771" d="M589.323,436.733c.03.03-.051.162-.182.295s-.261.217-.291.187.051-.161.182-.295S589.293,436.7,589.323,436.733Z" transform="translate(-588.845 -436.727)" fill="#263238"/>
              </g>
            </g>
            <g id="Group_17651" data-name="Group 17651" transform="translate(19.137 1.709)">
              <g id="Group_17650" data-name="Group 17650">
                <path id="Path_6772" data-name="Path 6772" d="M591.076,435.967c-.009.043-.177.042-.363.109s-.319.165-.353.137.072-.2.3-.282S591.088,435.928,591.076,435.967Z" transform="translate(-590.354 -435.895)" fill="#263238"/>
              </g>
            </g>
            <g id="Group_17653" data-name="Group 17653" transform="translate(20.427 1.498)">
              <g id="Group_17652" data-name="Group 17652">
                <path id="Path_6773" data-name="Path 6773" d="M592.519,435.632c.015.04-.057.1-.162.146s-.2.043-.218,0,.057-.1.162-.146S592.5,435.593,592.519,435.632Z" transform="translate(-592.137 -435.604)" fill="#263238"/>
              </g>
            </g>
          </g>
        </g>
        <g id="Group_17687" data-name="Group 17687" transform="translate(85.041 258.39)">
          <g id="Group_17686" data-name="Group 17686" transform="translate(0 0)">
            <g id="Group_17657" data-name="Group 17657">
              <g id="Group_17656" data-name="Group 17656">
                <path id="Path_6774" data-name="Path 6774" d="M614.371,431.776l-.483-1.061L625.265,425l2,4.374-.694.37c-3.1,1.617-15.884,8-18.3,8.32C605.574,438.416,614.371,431.776,614.371,431.776Z" transform="translate(-607.758 -424.998)" fill="#455a64"/>
              </g>
            </g>
            <g id="Group_17659" data-name="Group 17659" transform="translate(0.001 4.036)">
              <g id="Group_17658" data-name="Group 17658">
                <path id="Path_6775" data-name="Path 6775" d="M627.311,430.573a1.271,1.271,0,0,1-.189.112l-.553.292-2.054,1.04c-1.74.866-4.161,2.03-6.862,3.258s-5.171,2.283-6.968,3.025l-2.134.863-.584.224a1.146,1.146,0,0,1-.208.069,1.112,1.112,0,0,1,.2-.1l.573-.251,2.115-.908c1.785-.767,4.247-1.839,6.946-3.065s5.126-2.374,6.878-3.214l2.075-1,.566-.266A1.222,1.222,0,0,1,627.311,430.573Z" transform="translate(-607.759 -430.572)" fill="#263238"/>
              </g>
            </g>
            <g id="Group_17661" data-name="Group 17661" transform="translate(2.246 10.075)">
              <g id="Group_17660" data-name="Group 17660">
                <path id="Path_6776" data-name="Path 6776" d="M612.783,440.232a3.347,3.347,0,0,0-1.923-1.3,2.044,2.044,0,0,1,1.923,1.3Z" transform="translate(-610.86 -438.914)" fill="#263238"/>
              </g>
            </g>
            <g id="Group_17663" data-name="Group 17663" transform="translate(5.741 7.436)">
              <g id="Group_17662" data-name="Group 17662">
                <path id="Path_6777" data-name="Path 6777" d="M616.734,435.959c-.023.035-.276-.089-.564-.277s-.5-.371-.48-.406.276.089.564.278S616.757,435.924,616.734,435.959Z" transform="translate(-615.689 -435.27)" fill="#263238"/>
              </g>
            </g>
            <g id="Group_17665" data-name="Group 17665" transform="translate(6.484 6.873)">
              <g id="Group_17664" data-name="Group 17664">
                <path id="Path_6778" data-name="Path 6778" d="M617.727,434.828c-.013.041-.25,0-.529-.087s-.5-.193-.483-.233.25,0,.529.087S617.739,434.787,617.727,434.828Z" transform="translate(-616.714 -434.492)" fill="#263238"/>
              </g>
            </g>
            <g id="Group_17667" data-name="Group 17667" transform="translate(6.395 5.845)">
              <g id="Group_17666" data-name="Group 17666">
                <path id="Path_6779" data-name="Path 6779" d="M617.79,433.081c.017.038-.236.195-.567.349a1.489,1.489,0,0,1-.631.211c-.018-.038.235-.195.566-.35A1.493,1.493,0,0,1,617.79,433.081Z" transform="translate(-616.591 -433.072)" fill="#263238"/>
              </g>
            </g>
            <g id="Group_17669" data-name="Group 17669" transform="translate(6.13 4.991)">
              <g id="Group_17668" data-name="Group 17668">
                <path id="Path_6780" data-name="Path 6780" d="M617.543,431.9c.028.029-.2.294-.583.5a1.289,1.289,0,0,1-.735.222,4,4,0,0,1,.661-.357A4.136,4.136,0,0,1,617.543,431.9Z" transform="translate(-616.226 -431.892)" fill="#263238"/>
              </g>
            </g>
            <g id="Group_17671" data-name="Group 17671" transform="translate(3.444 6.796)">
              <g id="Group_17670" data-name="Group 17670">
                <path id="Path_6781" data-name="Path 6781" d="M615.011,434.887a2.344,2.344,0,0,1-.743.331,4.732,4.732,0,0,1-.867.184,2.344,2.344,0,0,1-.536.019.441.441,0,0,1-.287-.147.319.319,0,0,1-.022-.347,1.49,1.49,0,0,1,1.859-.364,1.452,1.452,0,0,1,.466.384c.087.113.117.187.109.191a2.3,2.3,0,0,0-.623-.479,1.463,1.463,0,0,0-.819-.125,1.261,1.261,0,0,0-.855.46c-.078.14.03.258.2.277a2.435,2.435,0,0,0,.5-.011,5.534,5.534,0,0,0,.853-.148C614.718,434.991,615,434.864,615.011,434.887Z" transform="translate(-612.515 -434.386)" fill="#263238"/>
              </g>
            </g>
            <g id="Group_17673" data-name="Group 17673" transform="translate(5.384 5.65)">
              <g id="Group_17672" data-name="Group 17672">
                <path id="Path_6782" data-name="Path 6782" d="M615.576,434.574a.8.8,0,0,1-.319-.476,1.343,1.343,0,0,1-.043-.633.818.818,0,0,1,.446-.657c.182-.056.606.31.635.447.046.136-.214.066-.227.18a2.5,2.5,0,0,1-.147.607,1.161,1.161,0,0,1-.288.492c-.021-.012.088-.2.185-.526a2.837,2.837,0,0,0,.109-.586c.031-.2-.027-.515-.228-.465-.193.067-.3.337-.345.536a1.341,1.341,0,0,0,.009.577A3,3,0,0,0,615.576,434.574Z" transform="translate(-615.195 -432.802)" fill="#263238"/>
              </g>
            </g>
            <g id="Group_17675" data-name="Group 17675" transform="translate(14.982 0.986)">
              <g id="Group_17674" data-name="Group 17674">
                <path id="Path_6783" data-name="Path 6783" d="M631.358,426.363c.009.028-.345.119-.838.416a3.963,3.963,0,0,0-1.928,3.775c.048.574.182.914.154.922a.739.739,0,0,1-.106-.232,3.319,3.319,0,0,1-.156-.678,3.846,3.846,0,0,1,1.981-3.88,3.344,3.344,0,0,1,.641-.271A.755.755,0,0,1,631.358,426.363Z" transform="translate(-628.453 -426.361)" fill="#263238"/>
              </g>
            </g>
            <g id="Group_17677" data-name="Group 17677" transform="translate(9.969 5.72)">
              <g id="Group_17676" data-name="Group 17676">
                <path id="Path_6784" data-name="Path 6784" d="M624.895,432.9a10.38,10.38,0,0,1-3.366,1.533c-.014-.042.762-.331,1.688-.755S624.872,432.863,624.895,432.9Z" transform="translate(-621.529 -432.899)" fill="#263238"/>
              </g>
            </g>
            <g id="Group_17679" data-name="Group 17679" transform="translate(15.445 4.681)">
              <g id="Group_17678" data-name="Group 17678">
                <path id="Path_6785" data-name="Path 6785" d="M629.233,431.466c.041.015.011.188.012.395s.029.38-.012.4-.142-.155-.141-.395S629.2,431.449,629.233,431.466Z" transform="translate(-629.092 -431.464)" fill="#263238"/>
              </g>
            </g>
            <g id="Group_17681" data-name="Group 17681" transform="translate(15.703 3.236)">
              <g id="Group_17680" data-name="Group 17680">
                <path id="Path_6786" data-name="Path 6786" d="M629.7,429.469c.04.014.02.169-.044.343s-.149.3-.189.29-.019-.168.045-.343S629.663,429.454,629.7,429.469Z" transform="translate(-629.449 -429.467)" fill="#263238"/>
              </g>
            </g>
            <g id="Group_17683" data-name="Group 17683" transform="translate(16.387 2.18)">
              <g id="Group_17682" data-name="Group 17682">
                <path id="Path_6787" data-name="Path 6787" d="M630.962,428.03c.009.043-.144.111-.287.247s-.223.282-.265.269-.018-.215.161-.381S630.958,427.989,630.962,428.03Z" transform="translate(-630.393 -428.009)" fill="#263238"/>
              </g>
            </g>
            <g id="Group_17685" data-name="Group 17685" transform="translate(17.424 1.569)">
              <g id="Group_17684" data-name="Group 17684">
                <path id="Path_6788" data-name="Path 6788" d="M632.121,427.175c.03.03-.01.119-.088.2s-.167.122-.2.093.009-.119.088-.2S632.091,427.146,632.121,427.175Z" transform="translate(-631.826 -427.166)" fill="#263238"/>
              </g>
            </g>
          </g>
        </g>
        <g id="Group_17710" data-name="Group 17710" transform="translate(39.412 61.902)">
          <g id="Group_17700" data-name="Group 17700" transform="translate(0.14)">
            <g id="Group_17699" data-name="Group 17699">
              <g id="Group_17692" data-name="Group 17692">
                <g id="Group_17691" data-name="Group 17691">
                  <g id="Group_17690" data-name="Group 17690">
                    <g id="Group_17689" data-name="Group 17689">
                      <g id="Group_17688" data-name="Group 17688">
                        <path id="Path_6789" data-name="Path 6789" d="M593.892,204.3l-2.118-25.843,10.88.194s.5-3.81-1.1-12.169c-.983-5.125-4.4-8.268-8.225-10.136v-.069l-.332-.087a31.092,31.092,0,0,0-9.966-2.6l-13.355.154s-10.2-1.273-15.849,6c-2.175,2.8-8.906,21.976-8.906,21.976l16.03,7.72-1.525-10.633s.3,7.709,1.287,10.151c.548,1.361,2.135,5.587,2.135,5.587l-.207,12.752Z" transform="translate(-544.924 -153.589)" fill="url(#linear-gradient)"/>
                      </g>
                    </g>
                  </g>
                </g>
              </g>
              <g id="Group_17693" data-name="Group 17693" transform="translate(39.618 15.402)">
                <path id="Path_6790" data-name="Path 6790" d="M601.631,180.578l-1.982,8.445h18.7l-1.23-14.159Z" transform="translate(-599.649 -174.864)" fill="url(#linear-gradient)"/>
              </g>
              <g id="Group_17695" data-name="Group 17695" transform="translate(41.381 29.16)">
                <g id="Group_17694" data-name="Group 17694">
                  <path id="Path_6791" data-name="Path 6791" d="M619.021,194.269a13.927,13.927,0,0,0-2.475-.245c-1.533-.09-3.653-.165-6-.155s-4.465.113-6,.235a13.354,13.354,0,0,0-2.469.3,16.706,16.706,0,0,0,2.485-.014c1.531-.047,3.646-.1,5.983-.114s4.452.02,5.985.035A15.874,15.874,0,0,0,619.021,194.269Z" transform="translate(-602.083 -193.868)" fill="url(#linear-gradient)"/>
                </g>
              </g>
              <g id="Group_17697" data-name="Group 17697" transform="translate(40.728 15.333)">
                <g id="Group_17696" data-name="Group 17696">
                  <path id="Path_6792" data-name="Path 6792" d="M601.248,174.768a11.213,11.213,0,0,0-.062,2.149c.014,1.325.062,3.154.14,5.174s.172,3.848.261,5.17a11.128,11.128,0,0,0,.229,2.136,11.05,11.05,0,0,0,.062-2.148c-.014-1.325-.061-3.155-.14-5.175s-.172-3.848-.261-5.17A11.1,11.1,0,0,0,601.248,174.768Z" transform="translate(-601.181 -174.768)" fill="url(#linear-gradient)"/>
                </g>
              </g>
              <g id="Group_17698" data-name="Group 17698" transform="translate(23.778 22.648)" opacity="0.3">
                <path id="Path_6793" data-name="Path 6793" d="M577.768,184.872s4.157,30.817,15.841,30c0,0,5.26-.062,6.952-3.559v-1.376Z" transform="translate(-577.768 -184.872)" fill="url(#linear-gradient)"/>
              </g>
            </g>
          </g>
          <g id="Group_17701" data-name="Group 17701" transform="translate(38.698 17.149)" opacity="0.3">
            <path id="Path_6794" data-name="Path 6794" d="M600.421,177.277l-2.237,15.107,1.448,2.651,2.384-5.184-1.009-.024Z" transform="translate(-598.184 -177.277)" fill="url(#linear-gradient)"/>
          </g>
          <g id="Group_17703" data-name="Group 17703" transform="translate(14.326 21.428)">
            <g id="Group_17702" data-name="Group 17702">
              <path id="Path_6795" data-name="Path 6795" d="M568.259,202.715a3.167,3.167,0,0,1-.316-.722c-.182-.472-.423-1.163-.7-2.023a61.49,61.49,0,0,1-1.789-6.838,49.415,49.415,0,0,1-.886-7.016c-.043-.9-.057-1.636-.043-2.142a3.166,3.166,0,0,1,.054-.786c.06,0,.1,1.116.256,2.91a65.209,65.209,0,0,0,.99,6.961c.537,2.694,1.182,5.1,1.674,6.834q.344,1.207.586,2.055A3.189,3.189,0,0,1,568.259,202.715Z" transform="translate(-564.518 -183.188)" fill="url(#linear-gradient)"/>
            </g>
          </g>
          <g id="Group_17705" data-name="Group 17705" transform="translate(21.826 46.731)">
            <g id="Group_17704" data-name="Group 17704">
              <path id="Path_6796" data-name="Path 6796" d="M575.844,221.219c-.1.03-.389-.635-.646-1.485a3.583,3.583,0,0,1-.285-1.594c.1-.03.389.634.646,1.485A3.592,3.592,0,0,1,575.844,221.219Z" transform="translate(-574.879 -218.139)" fill="url(#linear-gradient)"/>
            </g>
          </g>
          <g id="Group_17707" data-name="Group 17707" transform="translate(23.978 45.175)">
            <g id="Group_17706" data-name="Group 17706">
              <path id="Path_6797" data-name="Path 6797" d="M578.28,220.507a6.674,6.674,0,0,1-.067-4.517,15.192,15.192,0,0,1,.016,2.259A15.221,15.221,0,0,1,578.28,220.507Z" transform="translate(-577.851 -215.99)" fill="url(#linear-gradient)"/>
            </g>
          </g>
          <g id="Group_17709" data-name="Group 17709" transform="translate(0 27.957)">
            <g id="Group_17708" data-name="Group 17708">
              <path id="Path_6798" data-name="Path 6798" d="M561.226,200.452c-.047.093-3.778-1.677-8.331-3.952s-8.21-4.2-8.164-4.29,3.776,1.676,8.332,3.953S561.273,200.359,561.226,200.452Z" transform="translate(-544.73 -192.206)" fill="url(#linear-gradient)"/>
            </g>
          </g>
        </g>
        <g id="Group_17759" data-name="Group 17759" transform="translate(56.9 24.363)">
          <g id="Group_17741" data-name="Group 17741" transform="translate(0 4.806)">
            <g id="Group_17740" data-name="Group 17740">
              <g id="Group_17739" data-name="Group 17739">
                <g id="Group_17738" data-name="Group 17738">
                  <g id="Group_17737" data-name="Group 17737">
                    <g id="Group_17713" data-name="Group 17713">
                      <g id="Group_17712" data-name="Group 17712">
                        <g id="Group_17711" data-name="Group 17711">
                          <path id="Path_6799" data-name="Path 6799" d="M574.468,143.76c.083-3.662.1-7.52.1-7.52s-4.7-.9-5.516-7.086c-.781-5.894,1.4-19.726,1.4-19.726h0c6.862-2.594,13.993-.243,18.695,5.317h0l-1.167,29.736a6.384,6.384,0,0,1-6.907,5.912h0A6.743,6.743,0,0,1,574.468,143.76Z" transform="translate(-568.887 -108.375)" fill="#b78876"/>
                        </g>
                      </g>
                    </g>
                    <g id="Group_17721" data-name="Group 17721" transform="translate(0.909 10.28)">
                      <g id="Group_17716" data-name="Group 17716" transform="translate(0.304 1.134)">
                        <g id="Group_17715" data-name="Group 17715">
                          <g id="Group_17714" data-name="Group 17714">
                            <path id="Path_6800" data-name="Path 6800" d="M570.565,124.835a.79.79,0,0,0,.741.816.755.755,0,0,0,.832-.691.79.79,0,0,0-.74-.817A.756.756,0,0,0,570.565,124.835Z" transform="translate(-570.563 -124.141)" fill="#263238"/>
                          </g>
                        </g>
                      </g>
                      <g id="Group_17720" data-name="Group 17720">
                        <g id="Group_17719" data-name="Group 17719">
                          <g id="Group_17718" data-name="Group 17718">
                            <g id="Group_17717" data-name="Group 17717">
                              <path id="Path_6801" data-name="Path 6801" d="M570.154,123.365c.095.106.7-.321,1.554-.3s1.461.465,1.556.363c.046-.045-.049-.233-.315-.438a2.17,2.17,0,0,0-1.242-.418,2.085,2.085,0,0,0-1.24.366C570.2,123.134,570.107,123.318,570.154,123.365Z" transform="translate(-570.143 -122.574)" fill="#263238"/>
                            </g>
                          </g>
                        </g>
                      </g>
                    </g>
                    <g id="Group_17729" data-name="Group 17729" transform="translate(9.765 10.818)">
                      <g id="Group_17724" data-name="Group 17724" transform="translate(0.068 1.133)">
                        <g id="Group_17723" data-name="Group 17723">
                          <g id="Group_17722" data-name="Group 17722">
                            <path id="Path_6802" data-name="Path 6802" d="M582.47,125.576a.789.789,0,0,0,.741.816.754.754,0,0,0,.832-.691.79.79,0,0,0-.74-.817A.756.756,0,0,0,582.47,125.576Z" transform="translate(-582.469 -124.882)" fill="#263238"/>
                          </g>
                        </g>
                      </g>
                      <g id="Group_17728" data-name="Group 17728">
                        <g id="Group_17727" data-name="Group 17727">
                          <g id="Group_17726" data-name="Group 17726">
                            <g id="Group_17725" data-name="Group 17725">
                              <path id="Path_6803" data-name="Path 6803" d="M582.387,124.108c.1.106.706-.321,1.554-.3s1.462.465,1.557.363c.046-.045-.048-.234-.316-.438a2.161,2.161,0,0,0-1.242-.418,2.075,2.075,0,0,0-1.24.366C582.434,123.877,582.34,124.061,582.387,124.108Z" transform="translate(-582.375 -123.317)" fill="#263238"/>
                            </g>
                          </g>
                        </g>
                      </g>
                    </g>
                    <g id="Group_17733" data-name="Group 17733" transform="translate(4.382 10.76)">
                      <g id="Group_17732" data-name="Group 17732">
                        <g id="Group_17731" data-name="Group 17731">
                          <g id="Group_17730" data-name="Group 17730">
                            <path id="Path_6804" data-name="Path 6804" d="M577.089,130.307a5.586,5.586,0,0,0-1.373-.285c-.216-.028-.421-.077-.453-.226a1.106,1.106,0,0,1,.161-.639l.684-1.635a28.336,28.336,0,0,0,1.552-4.284,28.408,28.408,0,0,0-1.893,4.148q-.344.861-.657,1.646a1.256,1.256,0,0,0-.135.848.545.545,0,0,0,.348.327,1.475,1.475,0,0,0,.368.061A5.551,5.551,0,0,0,577.089,130.307Z" transform="translate(-574.94 -123.238)" fill="#263238"/>
                          </g>
                        </g>
                      </g>
                    </g>
                    <g id="Group_17736" data-name="Group 17736" transform="translate(5.685 25.88)">
                      <g id="Group_17735" data-name="Group 17735">
                        <g id="Group_17734" data-name="Group 17734">
                          <path id="Path_6805" data-name="Path 6805" d="M576.739,146.109a15.664,15.664,0,0,0,8.3-1.986s-2.11,4.176-8.255,3.442Z" transform="translate(-576.739 -144.123)" fill="#a36957"/>
                        </g>
                      </g>
                    </g>
                  </g>
                </g>
              </g>
            </g>
          </g>
          <g id="Group_17743" data-name="Group 17743" transform="translate(9.517 12.824)">
            <g id="Group_17742" data-name="Group 17742">
              <path id="Path_6806" data-name="Path 6806" d="M585.011,120.589c-.174.266-.82.148-1.544.017s-1.365-.274-1.43-.585.676-.712,1.642-.526S585.188,120.338,585.011,120.589Z" transform="translate(-582.032 -119.45)" fill="#263238"/>
            </g>
          </g>
          <g id="Group_17745" data-name="Group 17745" transform="translate(0.893 12.047)">
            <g id="Group_17744" data-name="Group 17744">
              <path id="Path_6807" data-name="Path 6807" d="M573.277,119.046c-.066.309-.757.422-1.555.463s-1.5-.017-1.592-.319.58-.768,1.54-.811S573.345,118.746,573.277,119.046Z" transform="translate(-570.121 -118.376)" fill="#263238"/>
            </g>
          </g>
          <g id="Group_17746" data-name="Group 17746" transform="translate(6.018 24.636)">
            <path id="Path_6808" data-name="Path 6808" d="M577.726,135.8a.429.429,0,0,0-.47.215.483.483,0,1,0,.289-.23" transform="translate(-577.2 -135.765)" fill="#a36957"/>
          </g>
          <g id="Group_17748" data-name="Group 17748" transform="translate(5.747 24.572)">
            <g id="Group_17747" data-name="Group 17747">
              <path id="Path_6809" data-name="Path 6809" d="M577.822,135.857c.038-.034-.136-.243-.507-.161a.644.644,0,0,0-.465.455.728.728,0,0,0,.256.77.715.715,0,0,0,.814.005.611.611,0,0,0,.261-.6c-.075-.382-.357-.442-.365-.389-.032.048.1.18.073.406a.321.321,0,0,1-.172.266.367.367,0,0,1-.367-.016.383.383,0,0,1-.13-.35.367.367,0,0,1,.2-.268C577.616,135.856,577.795,135.909,577.822,135.857Z" transform="translate(-576.825 -135.677)" fill="#263238"/>
            </g>
          </g>
          <g id="Group_17758" data-name="Group 17758" transform="translate(1.213)">
            <g id="Group_17749" data-name="Group 17749">
              <path id="Path_6810" data-name="Path 6810" d="M586.77,120.177c-.733,1.7-2.519,3-2.272,4.837.16,1.182.919,2.285.771,3.469-.185,1.487-1.73,2.518-1.949,4-.268,1.819,1.5,3.232,2.207,4.929,1.029,2.471-.287,5.25-.319,7.927a8.5,8.5,0,0,0,7.525,8.266,4.59,4.59,0,0,0,4.371-1.782c.707-1.172.566-2.66.99-3.961.632-1.937,2.478-3.356,2.868-5.356.709-3.647-3.7-6.664-3.407-10.368.124-1.582,1.1-2.962,1.516-4.494a6.585,6.585,0,0,0-1.293-5.858c-1.087-1.294-2.666-2.144-3.592-3.558-1.05-1.6-1.087-3.635-1.483-5.51a13.88,13.88,0,0,0-22.046-8.131s-1.053,4.772,3.845,5.569,7.168-.123,7.72,1.84a5.19,5.19,0,0,0,1.467,4.483C585.715,118.67,587.618,118.212,586.77,120.177Z" transform="translate(-570.563 -101.736)" fill="#263238"/>
            </g>
            <g id="Group_17751" data-name="Group 17751" transform="translate(15.871 13.345)">
              <g id="Group_17750" data-name="Group 17750">
                <path id="Path_6811" data-name="Path 6811" d="M600.637,158.358a2.011,2.011,0,0,1-.447-.046,6.619,6.619,0,0,1-1.246-.337,8.787,8.787,0,0,1-3.789-2.805,9.925,9.925,0,0,1-1.611-2.868,11.516,11.516,0,0,1-.658-3.717,15.14,15.14,0,0,1,.522-4.134,18.027,18.027,0,0,1,.693-2.094,20.85,20.85,0,0,0,.795-2.08,3.911,3.911,0,0,0-.007-2.123,11.554,11.554,0,0,0-.823-1.982,13.219,13.219,0,0,1-.843-1.962,4.239,4.239,0,0,1-.152-2.081,14.724,14.724,0,0,1,1.606-3.408,6.485,6.485,0,0,0,.655-3.084,7.288,7.288,0,0,0-1.614-4.271,12.909,12.909,0,0,0-1.23-1.2,5.005,5.005,0,0,1,1.341,1.1,7.261,7.261,0,0,1,1.769,4.355,6.7,6.7,0,0,1-.641,3.232,14.994,14.994,0,0,0-1.546,3.338,6.1,6.1,0,0,0,.985,3.813,11.774,11.774,0,0,1,.854,2.047,4.292,4.292,0,0,1,.009,2.32,20.778,20.778,0,0,1-.81,2.121,17.823,17.823,0,0,0-.685,2.05,14.982,14.982,0,0,0-.531,4.034,10.447,10.447,0,0,0,2.131,6.424A8.932,8.932,0,0,0,599,157.839C600.023,158.253,600.646,158.316,600.637,158.358Z" transform="translate(-592.485 -120.169)" fill="#455a64"/>
              </g>
            </g>
            <g id="Group_17753" data-name="Group 17753" transform="translate(1.751 2.183)">
              <g id="Group_17752" data-name="Group 17752">
                <path id="Path_6812" data-name="Path 6812" d="M594.533,117.571a5.132,5.132,0,0,1-1.079.161,11.244,11.244,0,0,1-2.982-.078,5.669,5.669,0,0,1-3.762-2.283,12.247,12.247,0,0,1-.987-2.43,4.016,4.016,0,0,0-1.649-2.035,11.744,11.744,0,0,0-5.078-1.326,8.818,8.818,0,0,1-4.22-1.314,4.183,4.183,0,0,1-1.727-2.418,2.6,2.6,0,0,1-.056-.816.832.832,0,0,1,.059-.279,5.32,5.32,0,0,0,.14,1.06,4.168,4.168,0,0,0,1.737,2.235,8.792,8.792,0,0,0,4.108,1.187,11.759,11.759,0,0,1,5.241,1.355,4.356,4.356,0,0,1,1.789,2.218,12.522,12.522,0,0,0,.936,2.376,5.468,5.468,0,0,0,3.521,2.209,12.668,12.668,0,0,0,2.923.194A7.342,7.342,0,0,1,594.533,117.571Z" transform="translate(-572.981 -104.752)" fill="#455a64"/>
              </g>
            </g>
            <g id="Group_17755" data-name="Group 17755" transform="translate(3.079 1.244)">
              <g id="Group_17754" data-name="Group 17754">
                <path id="Path_6813" data-name="Path 6813" d="M593.242,111.317a2.2,2.2,0,0,1-.848.125,5.191,5.191,0,0,1-3.631-1.45,6.88,6.88,0,0,1-1.123-1.5c-.653-1.1-1.281-2.459-2.635-3.02a8.659,8.659,0,0,0-4.056-.357,12.4,12.4,0,0,1-3.462-.029,4.312,4.312,0,0,1-2.136-.958,2.459,2.459,0,0,1-.426-.478c-.082-.122-.118-.188-.108-.2.03-.023.2.233.627.56a4.446,4.446,0,0,0,2.087.809,13.044,13.044,0,0,0,3.387-.054,8.721,8.721,0,0,1,4.239.358,4.186,4.186,0,0,1,1.728,1.436,19.158,19.158,0,0,1,1.054,1.755,6.789,6.789,0,0,0,1.043,1.452,4.983,4.983,0,0,0,1.245.919,5.37,5.37,0,0,0,2.169.606C592.936,111.326,593.238,111.284,593.242,111.317Z" transform="translate(-574.816 -103.454)" fill="#455a64"/>
              </g>
            </g>
            <g id="Group_17757" data-name="Group 17757" transform="translate(21.073 15.371)">
              <g id="Group_17756" data-name="Group 17756">
                <path id="Path_6814" data-name="Path 6814" d="M604.781,157.569c-.037-.017.194-.483.461-1.373a12.467,12.467,0,0,0,.482-3.88,11.923,11.923,0,0,0-1.543-5.528c-.529-.948-1.334-1.793-1.989-2.834a5.123,5.123,0,0,1-.73-1.748,3.95,3.95,0,0,1,.161-1.954,22.862,22.862,0,0,0,1.289-3.452,4.759,4.759,0,0,0-.939-3.138,14.42,14.42,0,0,1-.775-1.439,5.175,5.175,0,0,1-.41-1.512,13.406,13.406,0,0,1,.082-2.76,7.3,7.3,0,0,0-.343-3.847,3.488,3.488,0,0,0-.854-1.133c0-.006.033.008.088.041a1.466,1.466,0,0,1,.231.165,2.678,2.678,0,0,1,.668.862,7.172,7.172,0,0,1,.476,3.934,13.6,13.6,0,0,0-.037,2.7,6.856,6.856,0,0,0,1.174,2.812,9.562,9.562,0,0,1,.788,1.539,3.648,3.648,0,0,1,.218,1.827,21.643,21.643,0,0,1-1.3,3.515,3.591,3.591,0,0,0-.151,1.772,4.784,4.784,0,0,0,.674,1.621c.621,1,1.43,1.862,1.976,2.855a11.955,11.955,0,0,1,1.509,5.7,11.711,11.711,0,0,1-.609,3.931,8.569,8.569,0,0,1-.417,1A1.428,1.428,0,0,1,604.781,157.569Z" transform="translate(-599.67 -122.968)" fill="#455a64"/>
              </g>
            </g>
          </g>
        </g>
        <g id="Group_17769" data-name="Group 17769" transform="translate(49.528 110.495)">
          <g id="Group_17760" data-name="Group 17760" transform="translate(0.117 0.185)">
            <path id="Path_6815" data-name="Path 6815" d="M564.027,319.513s-4.876-46.219-5.155-63.3,7.678-33.929,7.678-33.929l31.19-1.319s6.165,17.329,6.275,24.607c.215,14.145-3.758,28.113-3.3,39.334l1.043,34.6" transform="translate(-558.865 -220.967)" fill="#263238"/>
          </g>
          <g id="Group_17762" data-name="Group 17762" transform="translate(4.256 41.91)">
            <g id="Group_17761" data-name="Group 17761">
              <path id="Path_6816" data-name="Path 6816" d="M604.38,278.6a4.163,4.163,0,0,1-.509.385l-.284.2c-.1.083-.193.188-.3.292a4.644,4.644,0,0,0-.694.778c-1.008,1.234-1.742,3.437-2.44,6.186a20.8,20.8,0,0,1-1.579,4.4,7.93,7.93,0,0,1-.693,1.095c-.135.174-.258.36-.407.526l-.481.48a7.753,7.753,0,0,1-2.346,1.505c-1.746.765-3.717,1.129-5.517,2.031a8.716,8.716,0,0,0-4,4.563c-.878,1.962-1.411,4.022-2.144,5.944a10.771,10.771,0,0,1-3.256,4.938,8.939,8.939,0,0,1-5.1,1.6c-1.68.1-3.235.049-4.629.261A7.314,7.314,0,0,0,566.5,315.1a4.861,4.861,0,0,0-1.622,2.284,3.428,3.428,0,0,0-.121,1.775c.08.407.195.6.169.612a1.859,1.859,0,0,1-.243-.594,3.37,3.37,0,0,1,.054-1.836,4.962,4.962,0,0,1,1.631-2.406,7.46,7.46,0,0,1,3.584-1.416c1.42-.232,2.993-.2,4.648-.309a8.663,8.663,0,0,0,4.914-1.564,10.482,10.482,0,0,0,3.122-4.793c.72-1.9,1.249-3.963,2.145-5.968a9.067,9.067,0,0,1,4.179-4.738c1.873-.93,3.844-1.281,5.546-2.021a7.466,7.466,0,0,0,2.259-1.429l.46-.454c.144-.159.263-.337.394-.5a7.641,7.641,0,0,0,.676-1.051,20.9,20.9,0,0,0,1.6-4.32c.73-2.734,1.516-4.974,2.582-6.206a4.6,4.6,0,0,1,.735-.77c.115-.1.216-.2.319-.283l.3-.189A4.046,4.046,0,0,1,604.38,278.6Z" transform="translate(-564.582 -278.602)" fill="#fafafa"/>
            </g>
          </g>
          <g id="Group_17764" data-name="Group 17764" transform="translate(1.277 20.523)">
            <g id="Group_17763" data-name="Group 17763">
              <path id="Path_6817" data-name="Path 6817" d="M603.437,249.059a3.734,3.734,0,0,1,.041.619,7.676,7.676,0,0,1-.216,1.769,11.439,11.439,0,0,1-3.523,5.448,20.938,20.938,0,0,1-3.653,2.668c-1.4.83-2.939,1.619-4.519,2.511a23.633,23.633,0,0,0-4.622,3.251,17.856,17.856,0,0,0-3.5,4.921,45.418,45.418,0,0,1-3.036,5.349,12.786,12.786,0,0,1-1.98,2.189,12.485,12.485,0,0,1-2.354,1.568,29.165,29.165,0,0,1-4.846,1.858c-1.548.479-2.991.9-4.253,1.431a16.591,16.591,0,0,0-3.244,1.737,10.092,10.092,0,0,0-2.036,1.878,9.726,9.726,0,0,0-1.222,2.031,3.827,3.827,0,0,1,.2-.587,7.168,7.168,0,0,1,.9-1.534,9.9,9.9,0,0,1,2.029-1.958,16.425,16.425,0,0,1,3.264-1.813c1.273-.551,2.724-.993,4.263-1.483a29.3,29.3,0,0,0,4.779-1.867,12.211,12.211,0,0,0,2.281-1.533,12.47,12.47,0,0,0,1.914-2.132,45.871,45.871,0,0,0,3-5.311,18.128,18.128,0,0,1,3.581-5.013,23.727,23.727,0,0,1,4.706-3.285c1.593-.889,3.138-1.667,4.531-2.478a21.019,21.019,0,0,0,3.631-2.6,11.533,11.533,0,0,0,3.561-5.288A11.178,11.178,0,0,0,603.437,249.059Z" transform="translate(-560.467 -249.059)" fill="#fafafa"/>
            </g>
          </g>
          <g id="Group_17766" data-name="Group 17766">
            <g id="Group_17765" data-name="Group 17765">
              <path id="Path_6818" data-name="Path 6818" d="M558.985,258.593a.465.465,0,0,1-.063-.14,3.105,3.105,0,0,1-.068-2.167,7.1,7.1,0,0,1,4.585-4.227c1.284-.441,2.741-.707,4.258-1.1a7.976,7.976,0,0,0,5.9-4.39,22.3,22.3,0,0,0,1.082-2.6,28.316,28.316,0,0,1,2.295-5.551,8.864,8.864,0,0,1,4.723-3.672,43.207,43.207,0,0,1,5.419-1.373,17.947,17.947,0,0,0,4.711-1.6,9.865,9.865,0,0,0,3.189-2.873,10.769,10.769,0,0,0,2.026-5.864,16.8,16.8,0,0,0-.154-2.314,7.644,7.644,0,0,1,.3,2.317,10.7,10.7,0,0,1-1.955,6.016,10.065,10.065,0,0,1-3.253,2.991,18.075,18.075,0,0,1-4.787,1.67,43.974,43.974,0,0,0-5.368,1.381,8.511,8.511,0,0,0-4.531,3.526,28.388,28.388,0,0,0-2.267,5.475,22.4,22.4,0,0,1-1.109,2.643,8.28,8.28,0,0,1-6.141,4.527c-1.539.389-2.988.638-4.253,1.056a7.015,7.015,0,0,0-4.528,4.017,3.538,3.538,0,0,0-.138,1.677C558.937,258.387,559,258.586,558.985,258.593Z" transform="translate(-558.703 -220.711)" fill="#fafafa"/>
            </g>
          </g>
          <g id="Group_17768" data-name="Group 17768" transform="translate(5.251 76.962)">
            <g id="Group_17767" data-name="Group 17767">
              <path id="Path_6819" data-name="Path 6819" d="M602.27,327.019a2.054,2.054,0,0,1,.05.454,4.831,4.831,0,0,1-.133,1.307,7.433,7.433,0,0,1-2.737,3.911,12.2,12.2,0,0,1-2.87,1.7,37.977,37.977,0,0,1-3.6,1.246,29.778,29.778,0,0,0-3.915,1.43,11.308,11.308,0,0,0-3.563,2.6c-1.056,1.106-1.968,2.314-2.979,3.382a13.633,13.633,0,0,1-3.336,2.611,14.66,14.66,0,0,1-6.885,1.79,13.652,13.652,0,0,1-4.739-.788,8.681,8.681,0,0,1-1.2-.515,2.08,2.08,0,0,1-.4-.221,2.1,2.1,0,0,1,.43.152,11.64,11.64,0,0,0,1.218.445,14.289,14.289,0,0,0,4.687.66,14.622,14.622,0,0,0,6.721-1.827,13.416,13.416,0,0,0,3.237-2.561c.99-1.051,1.9-2.259,2.975-3.389a11.611,11.611,0,0,1,3.678-2.672,29.3,29.3,0,0,1,3.972-1.428c1.28-.389,2.5-.751,3.585-1.2a12.145,12.145,0,0,0,2.827-1.626,7.47,7.47,0,0,0,2.76-3.739A8.556,8.556,0,0,0,602.27,327.019Z" transform="translate(-565.957 -327.019)" fill="#fafafa"/>
            </g>
          </g>
        </g>
        <g id="Group_17772" data-name="Group 17772" transform="translate(56.476 55.125)">
          <path id="Path_6820" data-name="Path 6820" d="M599.362,180.62l-6.031.143a9.865,9.865,0,0,1-1.364,3.421,104.12,104.12,0,0,1-9.924-25.2c.141-.471.308-.992.518-1.574a6.683,6.683,0,0,0-.08-2.651c-.169-1.049-.463-2.461-.551-3.115-.269-1.992-.589-2.3-1.284-2.079-.945.306.388,5.594-.387,5.708-.416.062-.925-1.75-1.073-3.236s-.82-6.058-1.311-6.363c-.72-.447-1.348.26-1.166,1.74.184,1.5.416,5.965-.369,6.025s-1.424-7.52-1.424-7.52.122-1.649-.787-1.61c-1.641.072-.358,8.063-.218,8.819.1.527-.754.623-.829.052-.077-.589-.473-7.581-2.143-7.524-1.282.043.993,6.585.273,8.1s-1.22-5.15-2.443-5.058c-.455.034-.793.123.045,3.9a85.118,85.118,0,0,0,2.926,8.843c1.94,10.46,10.452,43.927,23.8,37.8,7.467-3.428,10.5-18.621,10.5-18.621Z" transform="translate(-568.301 -144.252)" fill="#b78876"/>
          <g id="Group_17771" data-name="Group 17771" transform="translate(5.024)">
            <g id="Group_17770" data-name="Group 17770">
              <path id="Path_6821" data-name="Path 6821" d="M575.542,153.622a.41.41,0,0,0,.174-.024.387.387,0,0,0,.272-.418c-.017-.45-.088-1.1-.192-1.95a28.132,28.132,0,0,1-.333-3.085c-.009-.606.006-1.258.041-1.948a6.791,6.791,0,0,1,.106-1.042c.056-.328.276-.7.529-.658l.028.005h.012c.258-.012.459.189.542.5a2.849,2.849,0,0,1,.095.969v.023a58.673,58.673,0,0,0,.774,6.045c.059.27.119.542.2.817a3.939,3.939,0,0,0,.151.415,1.292,1.292,0,0,0,.123.215.394.394,0,0,0,.3.19.541.541,0,0,0,.455-.38,2.188,2.188,0,0,0,.135-.445,6.707,6.707,0,0,0,.117-.883,26.4,26.4,0,0,0-.049-3.621,8.379,8.379,0,0,1-.075-1.814,1.006,1.006,0,0,1,.356-.675.391.391,0,0,1,.311-.04.738.738,0,0,1,.172.075.236.236,0,0,1,.08.107,9.049,9.049,0,0,1,.5,1.819c.128.641.24,1.294.342,1.954s.2,1.328.274,2a13.886,13.886,0,0,0,.334,2.059,6.839,6.839,0,0,0,.327,1.023,1.829,1.829,0,0,0,.3.512.429.429,0,0,0,.433.158.463.463,0,0,0,.3-.325,3.556,3.556,0,0,0,.076-1.126c-.015-.359-.045-.714-.075-1.069-.051-.61-.11-1.213-.13-1.807a6.077,6.077,0,0,1,.022-.871,1.391,1.391,0,0,1,.088-.378.342.342,0,0,1,.07-.108c.012-.012.019-.007.028-.018l.094-.027c.48-.2.64.47.767,1.008.112.561.182,1.142.295,1.713.191,1.14.434,2.273.562,3.363a3.89,3.89,0,0,1-.064,1.558l-.508,1.553-.015.046.011.049a83.738,83.738,0,0,0,3.239,10.468c1.147,3.089,2.292,5.759,3.3,7.943s1.913,3.869,2.538,5.017l.753,1.294a3.087,3.087,0,0,0,.279.435,3.012,3.012,0,0,0-.222-.467c-.172-.327-.4-.767-.7-1.323-.588-1.166-1.457-2.863-2.432-5.057s-2.094-4.866-3.214-7.956A86.053,86.053,0,0,1,584.277,159l0,.095.508-1.532a4.208,4.208,0,0,0,.089-1.732c-.13-1.132-.366-2.232-.555-3.378-.112-.566-.18-1.147-.3-1.741a3.437,3.437,0,0,0-.3-.9.875.875,0,0,0-.4-.4.892.892,0,0,0-.571-.023l-.122.035a.621.621,0,0,0-.164.093.7.7,0,0,0-.183.257,1.779,1.779,0,0,0-.121.494,6.423,6.423,0,0,0-.025.934c.021.614.08,1.221.132,1.829.03.353.059.7.074,1.052a3.41,3.41,0,0,1-.053.973c-.018.076-.054.062-.013.1l0,0c0-.024.006.037,0,.027v-.007a.044.044,0,0,1,0-.025c0-.007.019-.032.01-.034a.108.108,0,0,1-.043-.04,1.555,1.555,0,0,1-.222-.392,6.66,6.66,0,0,1-.307-.961,13.659,13.659,0,0,1-.326-2.008c-.081-.681-.176-1.352-.28-2.017s-.217-1.321-.35-1.971a8.98,8.98,0,0,0-.55-1.934.651.651,0,0,0-.227-.254,1.124,1.124,0,0,0-.27-.114.789.789,0,0,0-.612.085,1.355,1.355,0,0,0-.535.943,3.432,3.432,0,0,0-.012.992c.036.309.066.612.091.918a26.263,26.263,0,0,1,.065,3.565,6.439,6.439,0,0,1-.1.836,1.864,1.864,0,0,1-.11.375.467.467,0,0,1-.079.135c-.026.06-.049-.014-.047.084.037-.074,0-.033-.027-.095a1.015,1.015,0,0,1-.086-.151,3.631,3.631,0,0,1-.137-.371c-.08-.257-.142-.523-.2-.787a60.17,60.17,0,0,1-.818-6v.023a3.1,3.1,0,0,0-.118-1.077,1.1,1.1,0,0,0-.283-.482.752.752,0,0,0-.536-.2l.04,0a.625.625,0,0,0-.624.3,1.551,1.551,0,0,0-.222.563,6.741,6.741,0,0,0-.1,1.087c-.026.7-.031,1.352-.012,1.964a25.832,25.832,0,0,0,.4,3.1c.126.841.22,1.494.261,1.934a.342.342,0,0,1-.211.379C575.6,153.607,575.541,153.613,575.542,153.622Z" transform="translate(-575.241 -144.228)" fill="#a36957"/>
            </g>
          </g>
        </g>
        <path id="Path_6822" data-name="Path 6822" d="M504.945,208.23a15.551,15.551,0,0,0-4.194.481c-3.739.984-10.193,4.895-10.46,9.727h4.687s-2.625,5.588-1.853,5.071a60.32,60.32,0,0,0,5.986-5.391Z" transform="translate(-490.291 -106.769)" fill="#b78876"/>
        <g id="Group_17779" data-name="Group 17779" transform="translate(77.05)">
          <g id="Group_17774" data-name="Group 17774">
            <g id="Group_17773" data-name="Group 17773">
              <path id="Path_6823" data-name="Path 6823" d="M598.268,85.43c-.1.009-.529-3.867-.951-8.656s-.678-8.68-.574-8.69.529,3.866.95,8.657S598.371,85.421,598.268,85.43Z" transform="translate(-596.72 -68.084)" fill="#263238"/>
            </g>
          </g>
          <g id="Group_17776" data-name="Group 17776" transform="translate(7.657 0.236)">
            <g id="Group_17775" data-name="Group 17775">
              <path id="Path_6824" data-name="Path 6824" d="M621.753,68.411c.085.06-3.082,4.657-7.073,10.266s-7.3,10.109-7.381,10.048,3.082-4.656,7.074-10.266S621.668,68.351,621.753,68.411Z" transform="translate(-607.297 -68.41)" fill="#263238"/>
            </g>
          </g>
          <g id="Group_17778" data-name="Group 17778" transform="translate(14.072 21.061)">
            <g id="Group_17777" data-name="Group 17777">
              <path id="Path_6825" data-name="Path 6825" d="M632.744,97.185c.021.1-3.675.948-8.255,1.889s-8.31,1.622-8.331,1.52,3.675-.948,8.255-1.889S632.723,97.083,632.744,97.185Z" transform="translate(-616.158 -97.175)" fill="#263238"/>
            </g>
          </g>
        </g>
      </g>
    </g>
    <g id="Folder" transform="translate(148.769 144.344)">
      <g id="Group_17785" data-name="Group 17785">
        <g id="Group_17781" data-name="Group 17781" transform="translate(62.545 24.64)">
          <path id="Path_6826" data-name="Path 6826" d="M287.919,231.156l-25.6,131.614L258.968,380l170.9-.843c7.67-.038,14.467-6.848,16.935-16.966l30.3-124.258c1.874-7.68-2.237-15.669-8.059-15.663l-172.97.182C292.258,222.456,288.919,226.019,287.919,231.156Z" transform="translate(-258.968 -222.27)" fill="#0e1753"/>
        </g>
        <g id="Group_17783" data-name="Group 17783">
          <path id="Path_6828" data-name="Path 6828" d="M389.626,344.458l-18.095-145.81c-.741-5.974-5.5-10.431-11.119-10.413l-39.678.13a10.813,10.813,0,0,0-7.838,3.476l-18.841,20.028-110.35.576c-6.744.035-11.924,6.416-11.03,13.585l16.8,134.767c.744,5.965,5.494,10.416,11.105,10.405l192.317-.38c21.42.444,23.464-5.882,23.464-5.882C391.814,370.379,389.628,344.475,389.626,344.458Z" transform="translate(-172.575 -188.235)" fill="#24a9e2"/>
        </g>
        <g id="Group_17784" data-name="Group 17784" transform="translate(77.684 80.557)" opacity="0.5">
          <path id="Path_6829" data-name="Path 6829" d="M336.321,346.581l-6.486,6.966L279.88,308.608l6.486-6.966Z" transform="translate(-279.88 -300.098)" fill="#fff"/>
          <path id="Path_6830" data-name="Path 6830" d="M327.893,299.509l7.168,6.449-45.2,48.546-7.168-6.449Z" transform="translate(-280.657 -299.509)" fill="#fff"/>
        </g>
      </g>
    </g>
    <g id="Speech_Bubble" data-name="Speech Bubble" transform="translate(369.987 50.155)">
      <g id="Group_17794" data-name="Group 17794">
        <g id="Group_17790" data-name="Group 17790" transform="translate(17.345 13.301)">
          <g id="Group_17787" data-name="Group 17787">
            <g id="Group_17786" data-name="Group 17786">
              <path id="Path_6831" data-name="Path 6831" d="M508.052,96.254a1.351,1.351,0,0,1-.818-1.184l-.29-6.721a1.351,1.351,0,0,1,1.66-1.373,4.2,4.2,0,0,0,3.269-.646,3.78,3.78,0,0,0,1.69-2.475,3.87,3.87,0,0,0-.812-2.907A4.311,4.311,0,0,0,509.9,79.23a5.061,5.061,0,0,0-5.139,3.647,1.351,1.351,0,1,1-2.607-.708,7.783,7.783,0,0,1,8.055-5.623,6.969,6.969,0,0,1,4.7,2.773,6.575,6.575,0,0,1,1.324,4.971,6.486,6.486,0,0,1-2.857,4.287,7.074,7.074,0,0,1-3.664,1.2l.224,5.181a1.352,1.352,0,0,1-1.882,1.3Z" transform="translate(-502.103 -76.504)" fill="#e8505b"/>
            </g>
          </g>
          <g id="Group_17789" data-name="Group 17789" transform="translate(5.722 21.466)">
            <g id="Group_17788" data-name="Group 17788">
              <path id="Path_6832" data-name="Path 6832" d="M512.213,107.185a1.1,1.1,0,1,1-1.178-1.027A1.105,1.105,0,0,1,512.213,107.185Z" transform="translate(-510.006 -106.155)" fill="#e8505b"/>
            </g>
          </g>
        </g>
        <g id="Group_17793" data-name="Group 17793">
          <g id="Group_17792" data-name="Group 17792">
            <g id="Group_17791" data-name="Group 17791">
              <path id="Path_6833" data-name="Path 6833" d="M478.174,81.705a2.788,2.788,0,0,0,.066-.441c.034-.315.081-.743.142-1.294a15.24,15.24,0,0,1,.35-2.081c.1-.405.145-.856.293-1.313s.291-.946.45-1.462a24.891,24.891,0,0,1,3.6-6.9,24.277,24.277,0,0,1,22.442-9.449c.555.053,1.1.2,1.66.3a11.38,11.38,0,0,1,1.666.4,23,23,0,0,1,6.474,2.935,24.218,24.218,0,0,1,9.569,12.017,23.642,23.642,0,0,1,1.42,8.259,23.219,23.219,0,0,1-1.515,8.5l-.327.827-.043.109.044.1c1.816,4.182,3.6,8.284,5.323,12.259l.3-.346L519.25,99.966l-.134-.051-.1.1a24.24,24.24,0,0,1-10.239,5.911,24.079,24.079,0,0,1-19.547-3.034,24.805,24.805,0,0,1-6.1-5.684,24.011,24.011,0,0,1-4.631-11.1q-.129-1.06-.228-1.883-.021-.812-.036-1.383c-.012-.355-.021-.636-.027-.848a1.479,1.479,0,0,0-.024-.288,1.611,1.611,0,0,0-.017.287c0,.212-.007.492-.011.85q0,.574,0,1.391.084.83.191,1.9A23.884,23.884,0,0,0,482.892,97.4a24.991,24.991,0,0,0,6.148,5.805,24.381,24.381,0,0,0,19.844,3.168,24.637,24.637,0,0,0,10.444-6l-.24.05,10.836,4.183.546.211-.241-.557L524.914,92v.211l.334-.845a23.709,23.709,0,0,0,1.546-8.69,24.144,24.144,0,0,0-1.459-8.44A24.653,24.653,0,0,0,515.556,62a23.4,23.4,0,0,0-6.6-2.968,11.764,11.764,0,0,0-1.7-.4c-.568-.1-1.125-.245-1.689-.3a23.849,23.849,0,0,0-15.056,2.944,24.355,24.355,0,0,0-7.657,6.768,24.777,24.777,0,0,0-3.565,7.009q-.228.784-.431,1.481c-.143.461-.186.917-.274,1.327a14.322,14.322,0,0,0-.305,2.1c-.04.554-.071.987-.094,1.3A3.1,3.1,0,0,0,478.174,81.705Z" transform="translate(-478.144 -58.132)" fill="#263238"/>
            </g>
          </g>
        </g>
      </g>
    </g>
  </g>
</svg>
