<svg xmlns="http://www.w3.org/2000/svg" width="36" height="36" viewBox="0 0 36 36">
  <path id="Icon_awesome-hat-wizard" data-name="Icon awesome-hat-wizard" d="M34.875,31.5H1.125A1.125,1.125,0,0,0,0,32.625v2.25A1.125,1.125,0,0,0,1.125,36h33.75A1.125,1.125,0,0,0,36,34.875v-2.25A1.125,1.125,0,0,0,34.875,31.5ZM13.5,27,9,24.75l4.5-2.25L15.75,18,18,22.5l4.5,2.25L18,27l-1.125,2.25H31.5L25.424,15.073a4.5,4.5,0,0,1-.133-3.2L29.25,0,16.061,7.537A9,9,0,0,0,12.3,11.7L4.5,29.25H14.625ZM18,11.25,19.125,9l1.125,2.25,2.25,1.125L20.25,13.5l-1.125,2.25L18,13.5l-2.25-1.125Z" fill="#9f31f6"/>
</svg>
