<svg xmlns="http://www.w3.org/2000/svg" width="219.604" height="75.04" viewBox="0 0 219.604 75.04">
  <g id="Group_42" data-name="Group 42" transform="translate(-335.202 -174.691)">
    <path id="Path_649" data-name="Path 649" d="M534.2,249.731h-178.4a20.6,20.6,0,0,1-20.6-20.6V195.294a20.6,20.6,0,0,1,20.6-20.6H534.2a20.6,20.6,0,0,1,20.6,20.6v33.834a20.6,20.6,0,0,1-20.6,20.6" fill="#0038ae"/>
    <path id="Path_650" data-name="Path 650" d="M357.524,194.964l3.889-9.385h7.379l4.869,28.68h-7.419l-2.471-16.509-4.934,10.6h-2.626l-4.934-10.6-2.471,16.509h-7.419l4.871-28.68h7.379Z" transform="translate(4.985 8.776)" fill="#fff"/>
    <path id="Path_651" data-name="Path 651" d="M375.91,190.928h6.922V210.44H375.91v-2.169a7.221,7.221,0,0,1-5.973,2.778,9.682,9.682,0,0,1-3.917-.78,9.4,9.4,0,0,1-3.119-2.187,10.078,10.078,0,0,1-2.073-3.309,11.3,11.3,0,0,1-.742-4.147,11.037,11.037,0,0,1,.722-3.975,10.2,10.2,0,0,1,2.017-3.289,9.369,9.369,0,0,1,7.036-3.043,7.947,7.947,0,0,1,6.048,2.548Zm-8.673,9.7a4.555,4.555,0,0,0,1.273,3.2,4.234,4.234,0,0,0,1.407.95,4.546,4.546,0,0,0,1.77.341,4.447,4.447,0,0,0,1.73-.341,4.217,4.217,0,0,0,1.407-.95,4.938,4.938,0,0,0,.952-1.409,4.118,4.118,0,0,0,.363-1.712,4.251,4.251,0,0,0-.363-1.73,4.88,4.88,0,0,0-.952-1.427,4.218,4.218,0,0,0-1.407-.95,4.447,4.447,0,0,0-1.73-.343,4.546,4.546,0,0,0-1.77.343,4.234,4.234,0,0,0-1.407.95,4.665,4.665,0,0,0-.932,1.389,4.174,4.174,0,0,0-.341,1.692" transform="translate(20.057 12.596)" fill="#fff"/>
    <path id="Path_652" data-name="Path 652" d="M389.6,197.241a6.366,6.366,0,0,0-3.614-1.217,4.9,4.9,0,0,0-1.844.343,4.577,4.577,0,0,0-1.5.97,4.418,4.418,0,0,0-1.006,1.483,4.837,4.837,0,0,0-.363,1.92,4.746,4.746,0,0,0,.363,1.884,4.565,4.565,0,0,0,.988,1.483,4.287,4.287,0,0,0,1.5.97,5.019,5.019,0,0,0,1.86.343,5.687,5.687,0,0,0,3.614-1.331v5.857a12.177,12.177,0,0,1-4.831,1.1,11.439,11.439,0,0,1-4.051-.722A10.144,10.144,0,0,1,375,205.02a9.884,9.884,0,0,1-.874-4.2,10.51,10.51,0,0,1,.836-4.241,10.1,10.1,0,0,1,2.283-3.309,10.305,10.305,0,0,1,3.442-2.169,11.7,11.7,0,0,1,4.278-.778,10.244,10.244,0,0,1,4.64,1.064Z" transform="translate(31.372 12.596)" fill="#fff"/>
    <path id="Path_653" data-name="Path 653" d="M384.441,190.843h6.885v3.195a7.95,7.95,0,0,1,2.7-2.682,7.25,7.25,0,0,1,3.726-.932h.591a4.251,4.251,0,0,1,.742.076v6.581a6.536,6.536,0,0,0-2.965-.684,4.43,4.43,0,0,0-3.6,1.425,6.331,6.331,0,0,0-1.2,4.165v8.369h-6.885Z" transform="translate(39.688 12.681)" fill="#fff"/>
    <path id="Path_654" data-name="Path 654" d="M393.677,200.564a9.494,9.494,0,0,1,.874-4.051,9.925,9.925,0,0,1,2.434-3.271,11.583,11.583,0,0,1,3.708-2.187,13.381,13.381,0,0,1,4.7-.8,13.55,13.55,0,0,1,4.659.782,11.478,11.478,0,0,1,3.728,2.167,9.7,9.7,0,0,1,2.453,3.309,10.111,10.111,0,0,1,.876,4.241,9.956,9.956,0,0,1-.894,4.242,10.1,10.1,0,0,1-2.453,3.309,10.993,10.993,0,0,1-3.748,2.149,14.319,14.319,0,0,1-4.735.76,13.7,13.7,0,0,1-4.641-.76,10.7,10.7,0,0,1-3.67-2.169,10.01,10.01,0,0,1-2.415-3.365,10.573,10.573,0,0,1-.874-4.356m7.264.076a4.453,4.453,0,0,0,.359,1.806,4.818,4.818,0,0,0,.955,1.429,4.154,4.154,0,0,0,1.4.95,4.556,4.556,0,0,0,3.46,0,4.181,4.181,0,0,0,1.407-.95,4.848,4.848,0,0,0,.954-1.429,4.354,4.354,0,0,0,.359-1.768,4.274,4.274,0,0,0-.359-1.73,4.864,4.864,0,0,0-.954-1.427,4.155,4.155,0,0,0-1.407-.95,4.533,4.533,0,0,0-3.46,0,4.129,4.129,0,0,0-1.4.95,4.913,4.913,0,0,0-.955,1.409,4.129,4.129,0,0,0-.359,1.71" transform="translate(47.132 12.545)" fill="#fff"/>
    <path id="Path_655" data-name="Path 655" d="M414.938,220.179h-6.885V190.927h6.885V193.1a7.264,7.264,0,0,1,6.009-2.778,9.318,9.318,0,0,1,3.9.82,9.831,9.831,0,0,1,3.137,2.223,10.08,10.08,0,0,1,2.072,3.31,11.056,11.056,0,0,1,.742,4.069,10.762,10.762,0,0,1-.742,4.031,10.366,10.366,0,0,1-2.05,3.271,9.545,9.545,0,0,1-3.1,2.209,9.421,9.421,0,0,1-3.881.8,8.124,8.124,0,0,1-6.084-2.512Zm8.672-19.438a4.711,4.711,0,0,0-.323-1.73,4.213,4.213,0,0,0-.93-1.427,4.772,4.772,0,0,0-1.427-.97,4.5,4.5,0,0,0-3.482-.018,4.216,4.216,0,0,0-1.389.95,4.855,4.855,0,0,0-.95,1.427,4.214,4.214,0,0,0-.361,1.73,4.281,4.281,0,0,0,.341,1.712,4.157,4.157,0,0,0,.954,1.387,4.8,4.8,0,0,0,1.427.954,4.388,4.388,0,0,0,3.44.016,4.162,4.162,0,0,0,1.387-.95,4.942,4.942,0,0,0,.952-1.407,4,4,0,0,0,.361-1.674" transform="translate(58.719 12.596)" fill="#ffd300"/>
    <path id="Path_656" data-name="Path 656" d="M437.856,190.928h6.923V210.44h-6.923v-2.169a7.223,7.223,0,0,1-5.972,2.778,9.7,9.7,0,0,1-3.919-.78,9.37,9.37,0,0,1-3.115-2.187,10.081,10.081,0,0,1-2.075-3.309,11.307,11.307,0,0,1-.742-4.147,10.959,10.959,0,0,1,.724-3.975,10.133,10.133,0,0,1,2.017-3.289,9.37,9.37,0,0,1,7.033-3.043,7.949,7.949,0,0,1,6.05,2.548Zm-8.672,9.7a4.576,4.576,0,0,0,1.273,3.2,4.223,4.223,0,0,0,1.409.95,4.531,4.531,0,0,0,1.768.341,4.446,4.446,0,0,0,1.73-.341,4.18,4.18,0,0,0,1.407-.95,4.982,4.982,0,0,0,.954-1.409,4.146,4.146,0,0,0,.359-1.712,4.28,4.28,0,0,0-.359-1.73,4.923,4.923,0,0,0-.954-1.427,4.181,4.181,0,0,0-1.407-.95,4.447,4.447,0,0,0-1.73-.343,4.531,4.531,0,0,0-1.768.343,4.224,4.224,0,0,0-1.409.95,4.663,4.663,0,0,0-.93,1.389,4.145,4.145,0,0,0-.343,1.692" transform="translate(69.986 12.596)" fill="#ffd300"/>
    <path id="Path_657" data-name="Path 657" d="M445.554,207.506l-9.432-16.85h7.988l5.21,10,5.06-10h7.912L446.62,219.907H438.9Z" transform="translate(81.343 12.868)" fill="#ffd300"/>
    <path id="Path_658" data-name="Path 658" d="M418.624,206.943a2.921,2.921,0,1,1-2.924-2.92,2.922,2.922,0,0,1,2.924,2.92" transform="translate(62.53 23.642)" fill="#ffd300"/>
    <path id="Path_659" data-name="Path 659" d="M418.623,206.945a2.92,2.92,0,1,1-2.922-2.922,2.922,2.922,0,0,1,2.922,2.922" transform="translate(62.531 23.642)" fill="#ffd300"/>
    <path id="Path_660" data-name="Path 660" d="M418.624,206.947a2.92,2.92,0,1,1-2.922-2.924,2.92,2.92,0,0,1,2.922,2.924" transform="translate(62.531 23.642)" fill="#ffd300"/>
    <path id="Path_661" data-name="Path 661" d="M418.625,206.946a2.92,2.92,0,1,1-2.922-2.92,2.921,2.921,0,0,1,2.922,2.92" transform="translate(62.532 23.644)" fill="#ffd300"/>
    <path id="Path_662" data-name="Path 662" d="M418.627,206.95a2.92,2.92,0,1,1-2.922-2.922,2.919,2.919,0,0,1,2.922,2.922" transform="translate(62.534 23.646)" fill="#ffd300"/>
    <path id="Path_663" data-name="Path 663" d="M418.628,206.952a2.919,2.919,0,1,1-2.92-2.922,2.92,2.92,0,0,1,2.92,2.922" transform="translate(62.536 23.648)" fill="#ffd300"/>
    <path id="Path_664" data-name="Path 664" d="M418.633,206.955a2.92,2.92,0,1,1-2.92-2.92,2.921,2.921,0,0,1,2.92,2.92" transform="translate(62.539 23.652)" fill="#ffd300"/>
    <path id="Path_665" data-name="Path 665" d="M418.637,206.959a2.92,2.92,0,1,1-2.92-2.92,2.92,2.92,0,0,1,2.92,2.92" transform="translate(62.542 23.655)" fill="#ffd300"/>
    <path id="Path_666" data-name="Path 666" d="M418.64,206.965a2.919,2.919,0,1,1-2.92-2.922,2.92,2.92,0,0,1,2.92,2.922" transform="translate(62.546 23.658)" fill="#ffd300"/>
    <path id="Path_667" data-name="Path 667" d="M418.648,206.972a2.921,2.921,0,1,1-2.922-2.924,2.92,2.92,0,0,1,2.922,2.924" transform="translate(62.549 23.662)" fill="#ffd300"/>
    <path id="Path_668" data-name="Path 668" d="M418.652,206.975a2.92,2.92,0,1,1-2.92-2.92,2.919,2.919,0,0,1,2.92,2.92" transform="translate(62.554 23.668)" fill="#ffd300"/>
    <path id="Path_669" data-name="Path 669" d="M418.659,206.983a2.92,2.92,0,1,1-2.92-2.922,2.922,2.922,0,0,1,2.92,2.922" transform="translate(62.56 23.673)" fill="#ffd300"/>
    <path id="Path_670" data-name="Path 670" d="M418.666,206.989a2.92,2.92,0,1,1-2.922-2.92,2.921,2.921,0,0,1,2.922,2.92" transform="translate(62.565 23.679)" fill="#ffd300"/>
    <path id="Path_671" data-name="Path 671" d="M418.673,207a2.92,2.92,0,1,1-2.92-2.92,2.921,2.921,0,0,1,2.92,2.92" transform="translate(62.571 23.686)" fill="#ffd300"/>
    <path id="Path_672" data-name="Path 672" d="M418.68,207.005a2.919,2.919,0,1,1-2.92-2.92,2.92,2.92,0,0,1,2.92,2.92" transform="translate(62.578 23.692)" fill="#ffd300"/>
    <path id="Path_673" data-name="Path 673" d="M418.689,207.015a2.919,2.919,0,1,1-2.92-2.922,2.921,2.921,0,0,1,2.92,2.922" transform="translate(62.586 23.699)" fill="#ffd300"/>
    <path id="Path_674" data-name="Path 674" d="M418.7,207.025a2.921,2.921,0,1,1-2.922-2.922,2.92,2.92,0,0,1,2.922,2.922" transform="translate(62.592 23.707)" fill="#ffd300"/>
    <path id="Path_675" data-name="Path 675" d="M418.71,207.035a2.921,2.921,0,1,1-2.92-2.922,2.921,2.921,0,0,1,2.92,2.922" transform="translate(62.599 23.715)" fill="#ffd300"/>
    <path id="Path_676" data-name="Path 676" d="M418.72,207.045a2.92,2.92,0,1,1-2.922-2.922,2.921,2.921,0,0,1,2.922,2.922" transform="translate(62.609 23.723)" fill="#ffd300"/>
    <path id="Path_677" data-name="Path 677" d="M418.73,207.055a2.919,2.919,0,1,1-2.92-2.92,2.919,2.919,0,0,1,2.92,2.92" transform="translate(62.619 23.732)" fill="#ffd300"/>
    <path id="Path_678" data-name="Path 678" d="M418.743,207.068a2.92,2.92,0,1,1-2.92-2.922,2.92,2.92,0,0,1,2.92,2.922" transform="translate(62.628 23.741)" fill="#ffd300"/>
    <path id="Path_679" data-name="Path 679" d="M418.755,207.078a2.92,2.92,0,1,1-2.92-2.92,2.922,2.922,0,0,1,2.92,2.92" transform="translate(62.637 23.751)" fill="#ffd300"/>
    <path id="Path_680" data-name="Path 680" d="M418.767,207.091a2.919,2.919,0,1,1-2.92-2.92,2.92,2.92,0,0,1,2.92,2.92" transform="translate(62.649 23.761)" fill="#ffd300"/>
    <path id="Path_681" data-name="Path 681" d="M418.782,207.1a2.92,2.92,0,1,1-2.92-2.92,2.922,2.922,0,0,1,2.92,2.92" transform="translate(62.659 23.772)" fill="#ffd300"/>
    <path id="Path_682" data-name="Path 682" d="M418.794,207.12a2.919,2.919,0,1,1-2.92-2.924,2.919,2.919,0,0,1,2.92,2.924" transform="translate(62.67 23.781)" fill="#ffd300"/>
    <path id="Path_683" data-name="Path 683" d="M418.811,207.131a2.92,2.92,0,1,1-2.922-2.92,2.922,2.922,0,0,1,2.922,2.92" transform="translate(62.682 23.794)" fill="#ffd300"/>
    <path id="Path_684" data-name="Path 684" d="M418.826,207.147a2.92,2.92,0,1,1-2.92-2.922,2.92,2.92,0,0,1,2.92,2.922" transform="translate(62.694 23.805)" fill="#ffd300"/>
    <path id="Path_685" data-name="Path 685" d="M418.842,207.16a2.921,2.921,0,1,1-2.92-2.92,2.92,2.92,0,0,1,2.92,2.92" transform="translate(62.706 23.817)" fill="#ffd300"/>
    <path id="Path_686" data-name="Path 686" d="M418.859,207.177a2.92,2.92,0,1,1-2.92-2.922,2.923,2.923,0,0,1,2.92,2.922" transform="translate(62.721 23.829)" fill="#ffd300"/>
    <path id="Path_687" data-name="Path 687" d="M418.876,207.191a2.92,2.92,0,1,1-2.922-2.92,2.92,2.92,0,0,1,2.922,2.92" transform="translate(62.735 23.842)" fill="#ffd300"/>
    <path id="Path_688" data-name="Path 688" d="M418.894,207.207a2.92,2.92,0,1,1-2.922-2.92,2.922,2.922,0,0,1,2.922,2.92" transform="translate(62.749 23.855)" fill="#ffd300"/>
    <path id="Path_689" data-name="Path 689" d="M418.912,207.225a2.92,2.92,0,1,1-2.922-2.922,2.921,2.921,0,0,1,2.922,2.922" transform="translate(62.764 23.868)" fill="#ffd300"/>
    <path id="Path_690" data-name="Path 690" d="M418.93,207.242a2.919,2.919,0,1,1-2.92-2.922,2.92,2.92,0,0,1,2.92,2.922" transform="translate(62.78 23.881)" fill="#ffd300"/>
    <path id="Path_691" data-name="Path 691" d="M418.951,207.259a2.92,2.92,0,1,1-2.92-2.922,2.92,2.92,0,0,1,2.92,2.922" transform="translate(62.795 23.895)" fill="#ffd300"/>
    <path id="Path_692" data-name="Path 692" d="M418.97,207.276a2.919,2.919,0,1,1-2.92-2.92,2.92,2.92,0,0,1,2.92,2.92" transform="translate(62.812 23.91)" fill="#ffd300"/>
    <path id="Path_693" data-name="Path 693" d="M418.993,207.3a2.921,2.921,0,1,1-2.92-2.922,2.921,2.921,0,0,1,2.92,2.922" transform="translate(62.827 23.924)" fill="#ffd300"/>
    <path id="Path_694" data-name="Path 694" d="M419.012,207.312a2.919,2.919,0,1,1-2.92-2.92,2.92,2.92,0,0,1,2.92,2.92" transform="translate(62.846 23.939)" fill="#ffd300"/>
    <path id="Path_695" data-name="Path 695" d="M419.036,207.332a2.921,2.921,0,1,1-2.922-2.922,2.922,2.922,0,0,1,2.922,2.922" transform="translate(62.863 23.954)" fill="#ffd300"/>
    <path id="Path_696" data-name="Path 696" d="M419.057,207.351a2.919,2.919,0,1,1-2.92-2.922,2.92,2.92,0,0,1,2.92,2.922" transform="translate(62.882 23.969)" fill="#ffd300"/>
    <path id="Path_697" data-name="Path 697" d="M419.082,207.369a2.92,2.92,0,1,1-2.922-2.92,2.922,2.922,0,0,1,2.922,2.92" transform="translate(62.901 23.985)" fill="#ffd300"/>
    <path id="Path_698" data-name="Path 698" d="M419.1,207.389a2.919,2.919,0,1,1-2.92-2.92,2.92,2.92,0,0,1,2.92,2.92" transform="translate(62.92 24.002)" fill="#ffd300"/>
    <path id="Path_699" data-name="Path 699" d="M419.13,207.41a2.92,2.92,0,1,1-2.922-2.922,2.921,2.921,0,0,1,2.922,2.922" transform="translate(62.939 24.017)" fill="#ffd300"/>
    <path id="Path_700" data-name="Path 700" d="M419.155,207.432a2.92,2.92,0,1,1-2.92-2.924,2.919,2.919,0,0,1,2.92,2.924" transform="translate(62.959 24.033)" fill="#ffd300"/>
    <path id="Path_701" data-name="Path 701" d="M419.181,207.45a2.92,2.92,0,1,1-2.922-2.92,2.921,2.921,0,0,1,2.922,2.92" transform="translate(62.98 24.051)" fill="#ffd300"/>
    <path id="Path_702" data-name="Path 702" d="M419.209,207.472a2.921,2.921,0,1,1-2.922-2.922,2.922,2.922,0,0,1,2.922,2.922" transform="translate(63.001 24.067)" fill="#ffd300"/>
    <path id="Path_703" data-name="Path 703" d="M419.233,207.492a2.919,2.919,0,1,1-2.92-2.92,2.921,2.921,0,0,1,2.92,2.92" transform="translate(63.024 24.085)" fill="#ffd300"/>
    <path id="Path_704" data-name="Path 704" d="M419.262,207.513a2.92,2.92,0,1,1-2.922-2.92,2.922,2.922,0,0,1,2.922,2.92" transform="translate(63.046 24.102)" fill="#ffd300"/>
    <path id="Path_705" data-name="Path 705" d="M419.29,207.536a2.92,2.92,0,1,1-2.922-2.922,2.921,2.921,0,0,1,2.922,2.922" transform="translate(63.068 24.118)" fill="#ffd300"/>
    <path id="Path_706" data-name="Path 706" d="M419.319,207.557a2.92,2.92,0,1,1-2.92-2.92,2.92,2.92,0,0,1,2.92,2.92" transform="translate(63.092 24.137)" fill="#ffd300"/>
    <path id="Path_707" data-name="Path 707" d="M419.347,207.581a2.919,2.919,0,1,1-2.92-2.922,2.919,2.919,0,0,1,2.92,2.922" transform="translate(63.116 24.155)" fill="#ffd300"/>
    <path id="Path_708" data-name="Path 708" d="M419.378,207.6a2.92,2.92,0,1,1-2.92-2.922,2.922,2.922,0,0,1,2.92,2.922" transform="translate(63.139 24.172)" fill="#ffd300"/>
    <path id="Path_709" data-name="Path 709" d="M419.409,207.625a2.92,2.92,0,1,1-2.92-2.92,2.922,2.922,0,0,1,2.92,2.92" transform="translate(63.164 24.192)" fill="#ffd300"/>
    <path id="Path_710" data-name="Path 710" d="M419.439,207.648a2.919,2.919,0,1,1-2.92-2.92,2.92,2.92,0,0,1,2.92,2.92" transform="translate(63.19 24.21)" fill="#ffd300"/>
    <path id="Path_711" data-name="Path 711" d="M419.472,207.672a2.92,2.92,0,1,1-2.92-2.922,2.92,2.92,0,0,1,2.92,2.922" transform="translate(63.215 24.228)" fill="#ffd300"/>
    <path id="Path_712" data-name="Path 712" d="M419.5,207.694a2.919,2.919,0,1,1-2.92-2.92,2.92,2.92,0,0,1,2.92,2.92" transform="translate(63.242 24.247)" fill="#ffd300"/>
    <path id="Path_713" data-name="Path 713" d="M419.538,207.719a2.92,2.92,0,1,1-2.922-2.922,2.922,2.922,0,0,1,2.922,2.922" transform="translate(63.268 24.266)" fill="#ffd300"/>
    <path id="Path_714" data-name="Path 714" d="M419.571,207.743a2.92,2.92,0,1,1-2.92-2.922,2.922,2.922,0,0,1,2.92,2.922" transform="translate(63.295 24.285)" fill="#ffd300"/>
    <path id="Path_715" data-name="Path 715" d="M419.606,207.765a2.92,2.92,0,1,1-2.922-2.92,2.921,2.921,0,0,1,2.922,2.92" transform="translate(63.323 24.305)" fill="#ffd300"/>
    <path id="Path_716" data-name="Path 716" d="M419.639,207.789a2.919,2.919,0,1,1-2.92-2.92,2.921,2.921,0,0,1,2.92,2.92" transform="translate(63.351 24.324)" fill="#ffd300"/>
    <path id="Path_717" data-name="Path 717" d="M419.677,207.815a2.921,2.921,0,1,1-2.92-2.922,2.92,2.92,0,0,1,2.92,2.922" transform="translate(63.379 24.343)" fill="#ffd300"/>
    <path id="Path_718" data-name="Path 718" d="M419.712,207.839a2.92,2.92,0,1,1-2.92-2.922,2.92,2.92,0,0,1,2.92,2.922" transform="translate(63.409 24.363)" fill="#ffd300"/>
    <path id="Path_719" data-name="Path 719" d="M419.749,207.864a2.92,2.92,0,1,1-2.922-2.922,2.921,2.921,0,0,1,2.922,2.922" transform="translate(63.438 24.383)" fill="#ffd300"/>
    <path id="Path_720" data-name="Path 720" d="M419.788,207.887a2.921,2.921,0,1,1-2.922-2.92,2.922,2.922,0,0,1,2.922,2.92" transform="translate(63.468 24.403)" fill="#ffd300"/>
    <path id="Path_721" data-name="Path 721" d="M419.826,207.912a2.921,2.921,0,1,1-2.922-2.92,2.922,2.922,0,0,1,2.922,2.92" transform="translate(63.499 24.423)" fill="#ffd300"/>
    <path id="Path_722" data-name="Path 722" d="M419.863,207.937a2.92,2.92,0,1,1-2.92-2.92,2.919,2.919,0,0,1,2.92,2.92" transform="translate(63.53 24.443)" fill="#ffd300"/>
    <path id="Path_723" data-name="Path 723" d="M419.9,207.962a2.92,2.92,0,1,1-2.92-2.92,2.919,2.919,0,0,1,2.92,2.92" transform="translate(63.562 24.463)" fill="#ffd300"/>
    <path id="Path_724" data-name="Path 724" d="M419.941,207.988a2.919,2.919,0,1,1-2.92-2.922,2.921,2.921,0,0,1,2.92,2.922" transform="translate(63.595 24.483)" fill="#ffd300"/>
    <path id="Path_725" data-name="Path 725" d="M419.983,208.012a2.92,2.92,0,1,1-2.92-2.92,2.922,2.922,0,0,1,2.92,2.92" transform="translate(63.627 24.504)" fill="#ffd300"/>
    <path id="Path_726" data-name="Path 726" d="M420.024,208.038a2.92,2.92,0,1,1-2.92-2.922,2.923,2.923,0,0,1,2.92,2.922" transform="translate(63.66 24.523)" fill="#ffd300"/>
    <path id="Path_727" data-name="Path 727" d="M420.064,208.062a2.919,2.919,0,1,1-2.92-2.92,2.921,2.921,0,0,1,2.92,2.92" transform="translate(63.694 24.544)" fill="#ffd300"/>
    <path id="Path_728" data-name="Path 728" d="M420.108,208.088a2.92,2.92,0,1,1-2.92-2.92,2.919,2.919,0,0,1,2.92,2.92" transform="translate(63.728 24.565)" fill="#ffd300"/>
    <path id="Path_729" data-name="Path 729" d="M420.152,208.113a2.921,2.921,0,1,1-2.92-2.92,2.923,2.923,0,0,1,2.92,2.92" transform="translate(63.762 24.585)" fill="#ffd300"/>
    <path id="Path_730" data-name="Path 730" d="M420.194,208.138a2.92,2.92,0,1,1-2.92-2.92,2.921,2.921,0,0,1,2.92,2.92" transform="translate(63.797 24.605)" fill="#ffd300"/>
    <path id="Path_731" data-name="Path 731" d="M420.24,208.164a2.922,2.922,0,1,1-2.922-2.92,2.922,2.922,0,0,1,2.922,2.92" transform="translate(63.832 24.626)" fill="#ffd300"/>
    <path id="Path_732" data-name="Path 732" d="M420.283,208.191a2.92,2.92,0,1,1-2.92-2.922,2.92,2.92,0,0,1,2.92,2.922" transform="translate(63.869 24.646)" fill="#ffd300"/>
    <path id="Path_733" data-name="Path 733" d="M420.329,208.216a2.92,2.92,0,1,1-2.922-2.922,2.922,2.922,0,0,1,2.922,2.922" transform="translate(63.906 24.666)" fill="#ffd300"/>
    <path id="Path_734" data-name="Path 734" d="M420.375,208.243a2.92,2.92,0,1,1-2.922-2.924,2.919,2.919,0,0,1,2.922,2.924" transform="translate(63.943 24.687)" fill="#ffd300"/>
    <path id="Path_735" data-name="Path 735" d="M420.42,208.266a2.919,2.919,0,1,1-2.92-2.92,2.92,2.92,0,0,1,2.92,2.92" transform="translate(63.981 24.708)" fill="#ffd300"/>
    <path id="Path_736" data-name="Path 736" d="M420.467,208.291a2.919,2.919,0,1,1-2.92-2.92,2.918,2.918,0,0,1,2.92,2.92" transform="translate(64.019 24.729)" fill="#ffd300"/>
    <path id="Path_737" data-name="Path 737" d="M420.515,208.317a2.919,2.919,0,1,1-2.92-2.92,2.921,2.921,0,0,1,2.92,2.92" transform="translate(64.057 24.75)" fill="#ffd300"/>
    <path id="Path_738" data-name="Path 738" d="M420.564,208.342a2.919,2.919,0,1,1-2.92-2.92,2.919,2.919,0,0,1,2.92,2.92" transform="translate(64.097 24.77)" fill="#ffd300"/>
    <path id="Path_739" data-name="Path 739" d="M420.614,208.369a2.92,2.92,0,1,1-2.92-2.922,2.919,2.919,0,0,1,2.92,2.922" transform="translate(64.136 24.79)" fill="#ffd300"/>
    <path id="Path_740" data-name="Path 740" d="M420.664,208.393a2.92,2.92,0,1,1-2.922-2.92,2.92,2.92,0,0,1,2.922,2.92" transform="translate(64.176 24.811)" fill="#ffd300"/>
    <path id="Path_741" data-name="Path 741" d="M420.714,208.419a2.92,2.92,0,1,1-2.92-2.922,2.921,2.921,0,0,1,2.92,2.922" transform="translate(64.216 24.83)" fill="#ffd300"/>
    <path id="Path_742" data-name="Path 742" d="M420.764,208.443a2.919,2.919,0,1,1-2.92-2.92,2.918,2.918,0,0,1,2.92,2.92" transform="translate(64.258 24.851)" fill="#ffd300"/>
    <path id="Path_743" data-name="Path 743" d="M420.816,208.471a2.919,2.919,0,1,1-2.92-2.924,2.922,2.922,0,0,1,2.92,2.924" transform="translate(64.3 24.87)" fill="#ffd300"/>
    <path id="Path_744" data-name="Path 744" d="M420.869,208.494a2.92,2.92,0,1,1-2.922-2.922,2.921,2.921,0,0,1,2.922,2.922" transform="translate(64.341 24.891)" fill="#ffd300"/>
    <path id="Path_745" data-name="Path 745" d="M420.92,208.519A2.919,2.919,0,1,1,418,205.6a2.921,2.921,0,0,1,2.92,2.922" transform="translate(64.384 24.911)" fill="#ffd300"/>
    <path id="Path_746" data-name="Path 746" d="M420.974,208.544a2.919,2.919,0,1,1-2.92-2.922,2.92,2.92,0,0,1,2.92,2.922" transform="translate(64.427 24.931)" fill="#ffd300"/>
    <path id="Path_747" data-name="Path 747" d="M421.031,208.568a2.922,2.922,0,1,1-2.922-2.92,2.922,2.922,0,0,1,2.922,2.92" transform="translate(64.469 24.952)" fill="#ffd300"/>
    <path id="Path_748" data-name="Path 748" d="M421.085,208.595a2.921,2.921,0,1,1-2.922-2.924,2.919,2.919,0,0,1,2.922,2.924" transform="translate(64.514 24.97)" fill="#ffd300"/>
    <path id="Path_749" data-name="Path 749" d="M421.138,208.618a2.919,2.919,0,1,1-2.92-2.922,2.919,2.919,0,0,1,2.92,2.922" transform="translate(64.56 24.991)" fill="#ffd300"/>
    <path id="Path_750" data-name="Path 750" d="M421.2,208.641a2.921,2.921,0,1,1-2.922-2.92,2.922,2.922,0,0,1,2.922,2.92" transform="translate(64.604 25.011)" fill="#ffd300"/>
    <path id="Path_751" data-name="Path 751" d="M421.25,208.665a2.919,2.919,0,1,1-2.92-2.92,2.919,2.919,0,0,1,2.92,2.92" transform="translate(64.65 25.03)" fill="#ffd300"/>
    <path id="Path_752" data-name="Path 752" d="M421.308,208.689a2.919,2.919,0,1,1-2.92-2.92,2.92,2.92,0,0,1,2.92,2.92" transform="translate(64.697 25.049)" fill="#ffd300"/>
    <path id="Path_753" data-name="Path 753" d="M421.368,208.714a2.921,2.921,0,1,1-2.92-2.922,2.92,2.92,0,0,1,2.92,2.922" transform="translate(64.742 25.068)" fill="#ffd300"/>
    <path id="Path_754" data-name="Path 754" d="M421.424,208.738a2.919,2.919,0,1,1-2.92-2.922,2.921,2.921,0,0,1,2.92,2.922" transform="translate(64.79 25.087)" fill="#ffd300"/>
    <path id="Path_755" data-name="Path 755" d="M421.485,208.76a2.92,2.92,0,1,1-2.922-2.92,2.922,2.922,0,0,1,2.922,2.92" transform="translate(64.838 25.107)" fill="#ffd300"/>
    <path id="Path_756" data-name="Path 756" d="M421.544,208.786a2.92,2.92,0,1,1-2.922-2.924,2.921,2.921,0,0,1,2.922,2.924" transform="translate(64.885 25.124)" fill="#ffd300"/>
    <path id="Path_757" data-name="Path 757" d="M421.6,208.806a2.919,2.919,0,1,1-2.92-2.92,2.921,2.921,0,0,1,2.92,2.92" transform="translate(64.934 25.144)" fill="#ffd300"/>
    <path id="Path_758" data-name="Path 758" d="M421.666,208.829a2.92,2.92,0,1,1-2.922-2.92,2.924,2.924,0,0,1,2.922,2.92" transform="translate(64.983 25.162)" fill="#ffd300"/>
    <path id="Path_759" data-name="Path 759" d="M421.726,208.852a2.919,2.919,0,1,1-2.92-2.92,2.921,2.921,0,0,1,2.92,2.92" transform="translate(65.033 25.181)" fill="#ffd300"/>
    <path id="Path_760" data-name="Path 760" d="M421.791,208.875a2.921,2.921,0,1,1-2.924-2.922,2.922,2.922,0,0,1,2.924,2.922" transform="translate(65.083 25.198)" fill="#ffd300"/>
    <path id="Path_761" data-name="Path 761" d="M421.851,208.9a2.919,2.919,0,1,1-2.92-2.92,2.92,2.92,0,0,1,2.92,2.92" transform="translate(65.134 25.216)" fill="#ffd300"/>
    <path id="Path_762" data-name="Path 762" d="M421.916,208.918a2.92,2.92,0,1,1-2.922-2.92,2.922,2.922,0,0,1,2.922,2.92" transform="translate(65.185 25.234)" fill="#ffd300"/>
    <path id="Path_763" data-name="Path 763" d="M421.978,208.94a2.919,2.919,0,1,1-2.92-2.92,2.921,2.921,0,0,1,2.92,2.92" transform="translate(65.236 25.252)" fill="#ffd300"/>
    <path id="Path_764" data-name="Path 764" d="M422.044,208.961a2.92,2.92,0,1,1-2.92-2.92,2.921,2.921,0,0,1,2.92,2.92" transform="translate(65.288 25.269)" fill="#ffd300"/>
    <path id="Path_765" data-name="Path 765" d="M422.11,208.982a2.92,2.92,0,1,1-2.922-2.92,2.922,2.922,0,0,1,2.922,2.92" transform="translate(65.341 25.286)" fill="#ffd300"/>
    <path id="Path_766" data-name="Path 766" d="M422.174,209a2.919,2.919,0,1,1-2.92-2.92,2.919,2.919,0,0,1,2.92,2.92" transform="translate(65.395 25.302)" fill="#ffd300"/>
    <path id="Path_767" data-name="Path 767" d="M422.243,209.024a2.921,2.921,0,1,1-2.92-2.92,2.919,2.919,0,0,1,2.92,2.92" transform="translate(65.447 25.319)" fill="#ffd300"/>
    <path id="Path_768" data-name="Path 768" d="M422.308,209.044a2.919,2.919,0,1,1-2.92-2.92,2.921,2.921,0,0,1,2.92,2.92" transform="translate(65.503 25.335)" fill="#ffd300"/>
    <path id="Path_769" data-name="Path 769" d="M422.375,209.064a2.919,2.919,0,1,1-2.92-2.92,2.919,2.919,0,0,1,2.92,2.92" transform="translate(65.557 25.352)" fill="#ffd300"/>
    <path id="Path_770" data-name="Path 770" d="M422.447,209.083a2.921,2.921,0,1,1-2.922-2.92,2.923,2.923,0,0,1,2.922,2.92" transform="translate(65.611 25.367)" fill="#ffd300"/>
    <path id="Path_771" data-name="Path 771" d="M422.513,209.1a2.919,2.919,0,1,1-2.92-2.92,2.921,2.921,0,0,1,2.92,2.92" transform="translate(65.668 25.382)" fill="#ffd300"/>
    <path id="Path_772" data-name="Path 772" d="M422.585,209.121a2.921,2.921,0,1,1-2.92-2.92,2.921,2.921,0,0,1,2.92,2.92" transform="translate(65.723 25.398)" fill="#ffd300"/>
    <path id="Path_773" data-name="Path 773" d="M422.656,209.14a2.922,2.922,0,1,1-2.922-2.92,2.921,2.921,0,0,1,2.922,2.92" transform="translate(65.779 25.413)" fill="#ffd300"/>
    <path id="Path_774" data-name="Path 774" d="M422.724,209.158a2.919,2.919,0,1,1-2.92-2.92,2.921,2.921,0,0,1,2.92,2.92" transform="translate(65.838 25.427)" fill="#ffd300"/>
    <path id="Path_775" data-name="Path 775" d="M422.8,209.176a2.92,2.92,0,1,1-2.92-2.92,2.92,2.92,0,0,1,2.92,2.92" transform="translate(65.895 25.442)" fill="#ffd300"/>
    <path id="Path_776" data-name="Path 776" d="M422.871,209.2a2.921,2.921,0,1,1-2.924-2.922,2.922,2.922,0,0,1,2.924,2.922" transform="translate(65.953 25.456)" fill="#ffd300"/>
    <path id="Path_777" data-name="Path 777" d="M422.941,209.212a2.919,2.919,0,1,1-2.92-2.922,2.921,2.921,0,0,1,2.92,2.922" transform="translate(66.013 25.469)" fill="#ffd300"/>
    <path id="Path_778" data-name="Path 778" d="M423.014,209.228a2.919,2.919,0,1,1-2.92-2.922,2.921,2.921,0,0,1,2.92,2.922" transform="translate(66.072 25.482)" fill="#ffd300"/>
    <path id="Path_779" data-name="Path 779" d="M423.088,209.243a2.919,2.919,0,1,1-2.92-2.92,2.92,2.92,0,0,1,2.92,2.92" transform="translate(66.131 25.496)" fill="#ffd300"/>
    <path id="Path_780" data-name="Path 780" d="M423.166,209.262a2.921,2.921,0,1,1-2.922-2.924,2.922,2.922,0,0,1,2.922,2.924" transform="translate(66.191 25.508)" fill="#ffd300"/>
    <path id="Path_781" data-name="Path 781" d="M423.24,209.275a2.92,2.92,0,1,1-2.92-2.92,2.918,2.918,0,0,1,2.92,2.92" transform="translate(66.252 25.522)" fill="#ffd300"/>
    <path id="Path_782" data-name="Path 782" d="M423.316,209.29a2.92,2.92,0,1,1-2.92-2.92,2.922,2.922,0,0,1,2.92,2.92" transform="translate(66.313 25.534)" fill="#ffd300"/>
    <path id="Path_783" data-name="Path 783" d="M423.391,209.307a2.919,2.919,0,1,1-2.92-2.924,2.919,2.919,0,0,1,2.92,2.924" transform="translate(66.375 25.544)" fill="#ffd300"/>
    <path id="Path_784" data-name="Path 784" d="M423.468,209.32a2.919,2.919,0,1,1-2.92-2.922,2.919,2.919,0,0,1,2.92,2.922" transform="translate(66.438 25.556)" fill="#ffd300"/>
    <path id="Path_785" data-name="Path 785" d="M423.546,209.333a2.919,2.919,0,1,1-2.92-2.922,2.919,2.919,0,0,1,2.92,2.922" transform="translate(66.5 25.567)" fill="#ffd300"/>
    <path id="Path_786" data-name="Path 786" d="M423.626,209.348a2.92,2.92,0,1,1-2.922-2.924,2.919,2.919,0,0,1,2.922,2.924" transform="translate(66.563 25.577)" fill="#ffd300"/>
    <path id="Path_787" data-name="Path 787" d="M423.7,209.359a2.92,2.92,0,1,1-2.922-2.922,2.921,2.921,0,0,1,2.922,2.922" transform="translate(66.627 25.588)" fill="#ffd300"/>
    <path id="Path_788" data-name="Path 788" d="M423.785,209.371a2.92,2.92,0,1,1-2.922-2.922,2.921,2.921,0,0,1,2.922,2.922" transform="translate(66.691 25.597)" fill="#ffd300"/>
    <path id="Path_789" data-name="Path 789" d="M423.865,209.382a2.92,2.92,0,1,1-2.92-2.92,2.92,2.92,0,0,1,2.92,2.92" transform="translate(66.756 25.608)" fill="#ffd300"/>
    <path id="Path_790" data-name="Path 790" d="M423.946,209.393a2.92,2.92,0,1,1-2.92-2.92,2.922,2.922,0,0,1,2.92,2.92" transform="translate(66.821 25.617)" fill="#ffd300"/>
    <path id="Path_791" data-name="Path 791" d="M424.028,209.4a2.92,2.92,0,1,1-2.92-2.92,2.92,2.92,0,0,1,2.92,2.92" transform="translate(66.887 25.626)" fill="#ffd300"/>
    <path id="Path_792" data-name="Path 792" d="M424.11,209.415a2.92,2.92,0,1,1-2.92-2.922,2.922,2.922,0,0,1,2.92,2.922" transform="translate(66.953 25.633)" fill="#ffd300"/>
    <path id="Path_793" data-name="Path 793" d="M424.193,209.425a2.92,2.92,0,1,1-2.92-2.922,2.92,2.92,0,0,1,2.92,2.922" transform="translate(67.02 25.641)" fill="#ffd300"/>
    <path id="Path_794" data-name="Path 794" d="M424.278,209.433a2.921,2.921,0,1,1-2.92-2.92,2.922,2.922,0,0,1,2.92,2.92" transform="translate(67.087 25.649)" fill="#ffd300"/>
    <path id="Path_795" data-name="Path 795" d="M424.361,209.442a2.92,2.92,0,1,1-2.92-2.92,2.92,2.92,0,0,1,2.92,2.92" transform="translate(67.156 25.656)" fill="#ffd300"/>
    <path id="Path_796" data-name="Path 796" d="M424.447,209.451a2.921,2.921,0,1,1-2.92-2.922,2.922,2.922,0,0,1,2.92,2.922" transform="translate(67.223 25.662)" fill="#ffd300"/>
    <path id="Path_797" data-name="Path 797" d="M424.531,209.458a2.92,2.92,0,1,1-2.92-2.922,2.92,2.92,0,0,1,2.92,2.922" transform="translate(67.293 25.668)" fill="#ffd300"/>
    <path id="Path_798" data-name="Path 798" d="M424.619,209.464a2.922,2.922,0,1,1-2.922-2.92,2.921,2.921,0,0,1,2.922,2.92" transform="translate(67.361 25.674)" fill="#ffd300"/>
    <path id="Path_799" data-name="Path 799" d="M424.7,209.472a2.92,2.92,0,1,1-2.922-2.922,2.919,2.919,0,0,1,2.922,2.922" transform="translate(67.432 25.679)" fill="#ffd300"/>
    <path id="Path_800" data-name="Path 800" d="M424.793,209.477a2.921,2.921,0,1,1-2.922-2.922,2.924,2.924,0,0,1,2.922,2.922" transform="translate(67.502 25.683)" fill="#ffd300"/>
    <path id="Path_801" data-name="Path 801" d="M424.88,209.481a2.921,2.921,0,1,1-2.92-2.92,2.921,2.921,0,0,1,2.92,2.92" transform="translate(67.572 25.688)" fill="#ffd300"/>
    <path id="Path_802" data-name="Path 802" d="M424.968,209.487a2.92,2.92,0,1,1-2.922-2.922,2.921,2.921,0,0,1,2.922,2.922" transform="translate(67.645 25.691)" fill="#ffd300"/>
    <path id="Path_803" data-name="Path 803" d="M425.056,209.491a2.919,2.919,0,1,1-2.92-2.922,2.92,2.92,0,0,1,2.92,2.922" transform="translate(67.717 25.694)" fill="#ffd300"/>
    <path id="Path_804" data-name="Path 804" d="M425.146,209.493a2.919,2.919,0,1,1-2.92-2.92,2.919,2.919,0,0,1,2.92,2.92" transform="translate(67.79 25.697)" fill="#ffd300"/>
    <path id="Path_805" data-name="Path 805" d="M425.239,209.5a2.921,2.921,0,1,1-2.922-2.922,2.922,2.922,0,0,1,2.922,2.922" transform="translate(67.862 25.699)" fill="#ffd300"/>
    <path id="Path_806" data-name="Path 806" d="M425.329,209.5a2.92,2.92,0,1,1-2.922-2.922,2.921,2.921,0,0,1,2.922,2.922" transform="translate(67.936 25.701)" fill="#ffd300"/>
    <path id="Path_807" data-name="Path 807" d="M425.419,209.5a2.919,2.919,0,1,1-2.92-2.92,2.92,2.92,0,0,1,2.92,2.92" transform="translate(68.01 25.702)" fill="#ffd300"/>
    <path id="Path_808" data-name="Path 808" d="M425.513,209.5a2.92,2.92,0,1,1-2.92-2.922,2.92,2.92,0,0,1,2.92,2.922" transform="translate(68.084 25.702)" fill="#ffd300"/>
    <path id="Path_809" data-name="Path 809" d="M425.606,209.5a2.92,2.92,0,1,1-2.92-2.922,2.922,2.922,0,0,1,2.92,2.922" transform="translate(68.159 25.702)" fill="#ffd300"/>
    <path id="Path_810" data-name="Path 810" d="M425.7,209.5a2.92,2.92,0,1,1-2.92-2.922,2.92,2.92,0,0,1,2.92,2.922" transform="translate(68.233 25.701)" fill="#ffd300"/>
    <path id="Path_811" data-name="Path 811" d="M425.79,209.5a2.92,2.92,0,1,1-2.922-2.92,2.922,2.922,0,0,1,2.922,2.92" transform="translate(68.307 25.701)" fill="#ffd300"/>
    <path id="Path_812" data-name="Path 812" d="M425.879,209.5a2.919,2.919,0,1,1-2.92-2.922,2.92,2.92,0,0,1,2.92,2.922" transform="translate(68.381 25.699)" fill="#ffd300"/>
    <path id="Path_813" data-name="Path 813" d="M425.969,209.493a2.919,2.919,0,1,1-2.92-2.92,2.92,2.92,0,0,1,2.92,2.92" transform="translate(68.453 25.697)" fill="#ffd300"/>
    <path id="Path_814" data-name="Path 814" d="M426.059,209.491a2.919,2.919,0,1,1-2.92-2.922,2.92,2.92,0,0,1,2.92,2.922" transform="translate(68.526 25.694)" fill="#ffd300"/>
    <path id="Path_815" data-name="Path 815" d="M426.148,209.487a2.919,2.919,0,1,1-2.92-2.922,2.921,2.921,0,0,1,2.92,2.922" transform="translate(68.598 25.691)" fill="#ffd300"/>
    <path id="Path_816" data-name="Path 816" d="M426.238,209.481a2.92,2.92,0,1,1-2.92-2.92,2.921,2.921,0,0,1,2.92,2.92" transform="translate(68.669 25.688)" fill="#ffd300"/>
    <path id="Path_817" data-name="Path 817" d="M426.326,209.476a2.92,2.92,0,1,1-2.92-2.92,2.922,2.922,0,0,1,2.92,2.92" transform="translate(68.739 25.684)" fill="#ffd300"/>
    <path id="Path_818" data-name="Path 818" d="M426.413,209.472a2.92,2.92,0,1,1-2.922-2.922,2.918,2.918,0,0,1,2.922,2.922" transform="translate(68.81 25.679)" fill="#ffd300"/>
    <path id="Path_819" data-name="Path 819" d="M426.5,209.464a2.921,2.921,0,1,1-2.922-2.92,2.922,2.922,0,0,1,2.922,2.92" transform="translate(68.879 25.674)" fill="#ffd300"/>
    <path id="Path_820" data-name="Path 820" d="M426.585,209.457a2.92,2.92,0,1,1-2.92-2.92,2.924,2.924,0,0,1,2.92,2.92" transform="translate(68.948 25.668)" fill="#ffd300"/>
    <path id="Path_821" data-name="Path 821" d="M426.669,209.451a2.919,2.919,0,1,1-2.92-2.922,2.919,2.919,0,0,1,2.92,2.922" transform="translate(69.018 25.662)" fill="#ffd300"/>
    <path id="Path_822" data-name="Path 822" d="M426.755,209.442a2.92,2.92,0,1,1-2.92-2.92,2.921,2.921,0,0,1,2.92,2.92" transform="translate(69.085 25.656)" fill="#ffd300"/>
    <path id="Path_823" data-name="Path 823" d="M426.839,209.433a2.92,2.92,0,1,1-2.92-2.92,2.92,2.92,0,0,1,2.92,2.92" transform="translate(69.153 25.649)" fill="#ffd300"/>
    <path id="Path_824" data-name="Path 824" d="M426.921,209.424A2.919,2.919,0,1,1,424,206.5a2.921,2.921,0,0,1,2.92,2.92" transform="translate(69.221 25.642)" fill="#ffd300"/>
    <path id="Path_825" data-name="Path 825" d="M427,209.414a2.919,2.919,0,1,1-2.92-2.92,2.921,2.921,0,0,1,2.92,2.92" transform="translate(69.288 25.634)" fill="#ffd300"/>
    <path id="Path_826" data-name="Path 826" d="M427.086,209.4a2.919,2.919,0,1,1-2.92-2.92,2.92,2.92,0,0,1,2.92,2.92" transform="translate(69.354 25.626)" fill="#ffd300"/>
    <path id="Path_827" data-name="Path 827" d="M427.169,209.393a2.92,2.92,0,1,1-2.922-2.92,2.923,2.923,0,0,1,2.922,2.92" transform="translate(69.419 25.617)" fill="#ffd300"/>
    <path id="Path_828" data-name="Path 828" d="M427.25,209.382a2.92,2.92,0,1,1-2.922-2.92,2.921,2.921,0,0,1,2.922,2.92" transform="translate(69.484 25.608)" fill="#ffd300"/>
    <path id="Path_829" data-name="Path 829" d="M427.332,209.37a2.922,2.922,0,1,1-2.922-2.92,2.924,2.924,0,0,1,2.922,2.92" transform="translate(69.548 25.598)" fill="#ffd300"/>
    <path id="Path_830" data-name="Path 830" d="M427.41,209.358a2.92,2.92,0,1,1-2.922-2.92,2.92,2.92,0,0,1,2.922,2.92" transform="translate(69.613 25.589)" fill="#ffd300"/>
    <path id="Path_831" data-name="Path 831" d="M427.489,209.347a2.92,2.92,0,1,1-2.92-2.922,2.919,2.919,0,0,1,2.92,2.922" transform="translate(69.677 25.578)" fill="#ffd300"/>
    <path id="Path_832" data-name="Path 832" d="M427.566,209.332a2.919,2.919,0,1,1-2.92-2.92,2.919,2.919,0,0,1,2.92,2.92" transform="translate(69.741 25.568)" fill="#ffd300"/>
    <path id="Path_833" data-name="Path 833" d="M427.644,209.32a2.919,2.919,0,1,1-2.92-2.922,2.919,2.919,0,0,1,2.92,2.922" transform="translate(69.803 25.556)" fill="#ffd300"/>
    <path id="Path_834" data-name="Path 834" d="M427.721,209.306a2.919,2.919,0,1,1-2.92-2.922,2.92,2.92,0,0,1,2.92,2.922" transform="translate(69.865 25.545)" fill="#ffd300"/>
    <path id="Path_835" data-name="Path 835" d="M427.8,209.29a2.919,2.919,0,1,1-2.92-2.92,2.92,2.92,0,0,1,2.92,2.92" transform="translate(69.927 25.534)" fill="#ffd300"/>
    <path id="Path_836" data-name="Path 836" d="M427.875,209.275a2.92,2.92,0,1,1-2.922-2.92,2.921,2.921,0,0,1,2.922,2.92" transform="translate(69.988 25.522)" fill="#ffd300"/>
    <path id="Path_837" data-name="Path 837" d="M427.95,209.261a2.92,2.92,0,1,1-2.92-2.922,2.921,2.921,0,0,1,2.92,2.922" transform="translate(70.048 25.509)" fill="#ffd300"/>
    <path id="Path_838" data-name="Path 838" d="M428.025,209.245a2.92,2.92,0,1,1-2.92-2.922,2.922,2.922,0,0,1,2.92,2.922" transform="translate(70.109 25.496)" fill="#ffd300"/>
    <path id="Path_839" data-name="Path 839" d="M428.1,209.227a2.919,2.919,0,1,1-2.92-2.92,2.921,2.921,0,0,1,2.92,2.92" transform="translate(70.168 25.483)" fill="#ffd300"/>
    <path id="Path_840" data-name="Path 840" d="M428.172,209.211a2.92,2.92,0,1,1-2.92-2.92,2.921,2.921,0,0,1,2.92,2.92" transform="translate(70.227 25.47)" fill="#ffd300"/>
    <path id="Path_841" data-name="Path 841" d="M428.245,209.2a2.92,2.92,0,1,1-2.922-2.922,2.921,2.921,0,0,1,2.922,2.922" transform="translate(70.286 25.456)" fill="#ffd300"/>
    <path id="Path_842" data-name="Path 842" d="M428.316,209.179a2.919,2.919,0,1,1-2.92-2.924,2.92,2.92,0,0,1,2.92,2.924" transform="translate(70.345 25.441)" fill="#ffd300"/>
    <path id="Path_843" data-name="Path 843" d="M428.387,209.16a2.919,2.919,0,1,1-2.92-2.922,2.919,2.919,0,0,1,2.92,2.922" transform="translate(70.402 25.427)" fill="#ffd300"/>
    <path id="Path_844" data-name="Path 844" d="M428.459,209.141a2.921,2.921,0,1,1-2.92-2.922,2.919,2.919,0,0,1,2.92,2.922" transform="translate(70.458 25.412)" fill="#ffd300"/>
    <path id="Path_845" data-name="Path 845" d="M428.53,209.123a2.92,2.92,0,1,1-2.92-2.922,2.922,2.922,0,0,1,2.92,2.922" transform="translate(70.516 25.398)" fill="#ffd300"/>
    <path id="Path_846" data-name="Path 846" d="M428.6,209.1a2.919,2.919,0,1,1-2.92-2.92,2.92,2.92,0,0,1,2.92,2.92" transform="translate(70.572 25.383)" fill="#ffd300"/>
    <path id="Path_847" data-name="Path 847" d="M428.667,209.084a2.919,2.919,0,1,1-2.92-2.92,2.92,2.92,0,0,1,2.92,2.92" transform="translate(70.628 25.368)" fill="#ffd300"/>
    <path id="Path_848" data-name="Path 848" d="M428.737,209.065a2.92,2.92,0,1,1-2.92-2.922,2.92,2.92,0,0,1,2.92,2.922" transform="translate(70.683 25.351)" fill="#ffd300"/>
    <path id="Path_849" data-name="Path 849" d="M428.8,209.044a2.92,2.92,0,1,1-2.92-2.92,2.919,2.919,0,0,1,2.92,2.92" transform="translate(70.737 25.335)" fill="#ffd300"/>
    <path id="Path_850" data-name="Path 850" d="M428.872,209.025a2.92,2.92,0,1,1-2.922-2.922,2.921,2.921,0,0,1,2.922,2.922" transform="translate(70.792 25.319)" fill="#ffd300"/>
    <path id="Path_851" data-name="Path 851" d="M428.937,209.005a2.919,2.919,0,1,1-2.92-2.922,2.919,2.919,0,0,1,2.92,2.922" transform="translate(70.846 25.302)" fill="#ffd300"/>
    <path id="Path_852" data-name="Path 852" d="M429,208.983a2.919,2.919,0,1,1-2.92-2.92,2.918,2.918,0,0,1,2.92,2.92" transform="translate(70.899 25.286)" fill="#ffd300"/>
    <path id="Path_853" data-name="Path 853" d="M429.071,208.963a2.921,2.921,0,1,1-2.92-2.922,2.92,2.92,0,0,1,2.92,2.922" transform="translate(70.95 25.269)" fill="#ffd300"/>
    <path id="Path_854" data-name="Path 854" d="M429.133,208.94a2.919,2.919,0,1,1-2.92-2.92,2.919,2.919,0,0,1,2.92,2.92" transform="translate(71.004 25.252)" fill="#ffd300"/>
    <path id="Path_855" data-name="Path 855" d="M429.2,208.92A2.921,2.921,0,1,1,426.277,206a2.922,2.922,0,0,1,2.922,2.922" transform="translate(71.054 25.234)" fill="#ffd300"/>
    <path id="Path_856" data-name="Path 856" d="M429.262,208.9a2.92,2.92,0,1,1-2.922-2.92,2.921,2.921,0,0,1,2.922,2.92" transform="translate(71.106 25.217)" fill="#ffd300"/>
    <path id="Path_857" data-name="Path 857" d="M429.325,208.876a2.92,2.92,0,1,1-2.92-2.922,2.922,2.922,0,0,1,2.92,2.922" transform="translate(71.157 25.198)" fill="#ffd300"/>
    <path id="Path_858" data-name="Path 858" d="M429.387,208.852a2.92,2.92,0,1,1-2.922-2.92,2.922,2.922,0,0,1,2.922,2.92" transform="translate(71.207 25.181)" fill="#ffd300"/>
    <path id="Path_859" data-name="Path 859" d="M429.45,208.829a2.921,2.921,0,1,1-2.92-2.92,2.924,2.924,0,0,1,2.92,2.92" transform="translate(71.256 25.162)" fill="#ffd300"/>
    <path id="Path_860" data-name="Path 860" d="M429.508,208.808a2.919,2.919,0,1,1-2.92-2.922,2.919,2.919,0,0,1,2.92,2.922" transform="translate(71.306 25.144)" fill="#ffd300"/>
    <path id="Path_861" data-name="Path 861" d="M429.57,208.785a2.921,2.921,0,1,1-2.92-2.922,2.922,2.922,0,0,1,2.92,2.922" transform="translate(71.353 25.125)" fill="#ffd300"/>
    <path id="Path_862" data-name="Path 862" d="M429.628,208.763a2.919,2.919,0,1,1-2.92-2.924,2.92,2.92,0,0,1,2.92,2.924" transform="translate(71.403 25.106)" fill="#ffd300"/>
    <path id="Path_863" data-name="Path 863" d="M429.689,208.738a2.92,2.92,0,1,1-2.922-2.922,2.922,2.922,0,0,1,2.922,2.922" transform="translate(71.45 25.087)" fill="#ffd300"/>
    <path id="Path_864" data-name="Path 864" d="M429.747,208.713a2.92,2.92,0,1,1-2.922-2.92,2.921,2.921,0,0,1,2.922,2.92" transform="translate(71.497 25.069)" fill="#ffd300"/>
    <path id="Path_865" data-name="Path 865" d="M429.805,208.691a2.921,2.921,0,1,1-2.922-2.922,2.921,2.921,0,0,1,2.922,2.922" transform="translate(71.543 25.049)" fill="#ffd300"/>
    <path id="Path_866" data-name="Path 866" d="M429.862,208.665a2.92,2.92,0,1,1-2.92-2.92,2.922,2.922,0,0,1,2.92,2.92" transform="translate(71.59 25.03)" fill="#ffd300"/>
    <path id="Path_867" data-name="Path 867" d="M429.917,208.641a2.919,2.919,0,1,1-2.92-2.92,2.919,2.919,0,0,1,2.92,2.92" transform="translate(71.635 25.011)" fill="#ffd300"/>
    <path id="Path_868" data-name="Path 868" d="M429.976,208.617a2.921,2.921,0,1,1-2.922-2.92,2.921,2.921,0,0,1,2.922,2.92" transform="translate(71.68 24.991)" fill="#ffd300"/>
    <path id="Path_869" data-name="Path 869" d="M430.03,208.594a2.92,2.92,0,1,1-2.92-2.922,2.918,2.918,0,0,1,2.92,2.922" transform="translate(71.725 24.971)" fill="#ffd300"/>
    <path id="Path_870" data-name="Path 870" d="M430.083,208.568a2.919,2.919,0,1,1-2.92-2.92,2.919,2.919,0,0,1,2.92,2.92" transform="translate(71.769 24.952)" fill="#ffd300"/>
    <path id="Path_871" data-name="Path 871" d="M430.139,208.543a2.92,2.92,0,1,1-2.92-2.92,2.921,2.921,0,0,1,2.92,2.92" transform="translate(71.813 24.932)" fill="#ffd300"/>
    <path id="Path_872" data-name="Path 872" d="M430.193,208.52a2.92,2.92,0,1,1-2.92-2.922,2.922,2.922,0,0,1,2.92,2.922" transform="translate(71.856 24.912)" fill="#ffd300"/>
    <path id="Path_873" data-name="Path 873" d="M430.247,208.5a2.921,2.921,0,1,1-2.922-2.922,2.922,2.922,0,0,1,2.922,2.922" transform="translate(71.898 24.891)" fill="#ffd300"/>
    <path id="Path_874" data-name="Path 874" d="M430.3,208.47a2.919,2.919,0,1,1-2.92-2.922,2.92,2.92,0,0,1,2.92,2.922" transform="translate(71.941 24.871)" fill="#ffd300"/>
    <path id="Path_875" data-name="Path 875" d="M430.348,208.445a2.919,2.919,0,1,1-2.92-2.922,2.919,2.919,0,0,1,2.92,2.922" transform="translate(71.983 24.851)" fill="#ffd300"/>
    <path id="Path_876" data-name="Path 876" d="M430.4,208.418a2.921,2.921,0,1,1-2.922-2.92,2.922,2.922,0,0,1,2.922,2.92" transform="translate(72.023 24.831)" fill="#ffd300"/>
    <path id="Path_877" data-name="Path 877" d="M430.451,208.394a2.92,2.92,0,1,1-2.92-2.922,2.922,2.922,0,0,1,2.92,2.922" transform="translate(72.064 24.81)" fill="#ffd300"/>
    <path id="Path_878" data-name="Path 878" d="M430.5,208.368a2.92,2.92,0,1,1-2.922-2.92,2.921,2.921,0,0,1,2.922,2.92" transform="translate(72.105 24.791)" fill="#ffd300"/>
    <path id="Path_879" data-name="Path 879" d="M430.55,208.345a2.92,2.92,0,1,1-2.922-2.924,2.919,2.919,0,0,1,2.922,2.924" transform="translate(72.144 24.769)" fill="#ffd300"/>
    <path id="Path_880" data-name="Path 880" d="M430.6,208.317a2.919,2.919,0,1,1-2.92-2.92,2.919,2.919,0,0,1,2.92,2.92" transform="translate(72.184 24.75)" fill="#ffd300"/>
    <path id="Path_881" data-name="Path 881" d="M430.645,208.293a2.919,2.919,0,1,1-2.92-2.922,2.92,2.92,0,0,1,2.92,2.922" transform="translate(72.222 24.729)" fill="#ffd300"/>
    <path id="Path_882" data-name="Path 882" d="M430.694,208.267a2.92,2.92,0,1,1-2.92-2.922,2.922,2.922,0,0,1,2.92,2.922" transform="translate(72.26 24.708)" fill="#ffd300"/>
    <path id="Path_883" data-name="Path 883" d="M430.742,208.242a2.921,2.921,0,1,1-2.92-2.922,2.922,2.922,0,0,1,2.92,2.922" transform="translate(72.297 24.687)" fill="#ffd300"/>
    <path id="Path_884" data-name="Path 884" d="M430.787,208.215a2.92,2.92,0,1,1-2.922-2.92,2.922,2.922,0,0,1,2.922,2.92" transform="translate(72.335 24.667)" fill="#ffd300"/>
    <path id="Path_885" data-name="Path 885" d="M430.834,208.19a2.921,2.921,0,1,1-2.924-2.92,2.921,2.921,0,0,1,2.924,2.92" transform="translate(72.371 24.647)" fill="#ffd300"/>
    <path id="Path_886" data-name="Path 886" d="M430.877,208.164a2.92,2.92,0,1,1-2.922-2.92,2.922,2.922,0,0,1,2.922,2.92" transform="translate(72.408 24.626)" fill="#ffd300"/>
    <path id="Path_887" data-name="Path 887" d="M430.921,208.14a2.92,2.92,0,1,1-2.92-2.922,2.92,2.92,0,0,1,2.92,2.922" transform="translate(72.443 24.605)" fill="#ffd300"/>
    <path id="Path_888" data-name="Path 888" d="M430.965,208.116a2.92,2.92,0,1,1-2.922-2.924,2.921,2.921,0,0,1,2.922,2.924" transform="translate(72.479 24.584)" fill="#ffd300"/>
    <path id="Path_889" data-name="Path 889" d="M431.008,208.088a2.92,2.92,0,1,1-2.922-2.92,2.921,2.921,0,0,1,2.922,2.92" transform="translate(72.513 24.565)" fill="#ffd300"/>
    <path id="Path_890" data-name="Path 890" d="M431.049,208.063a2.919,2.919,0,1,1-2.92-2.92,2.919,2.919,0,0,1,2.92,2.92" transform="translate(72.548 24.545)" fill="#ffd300"/>
    <path id="Path_891" data-name="Path 891" d="M431.092,208.037a2.921,2.921,0,1,1-2.92-2.92,2.921,2.921,0,0,1,2.92,2.92" transform="translate(72.58 24.524)" fill="#ffd300"/>
    <path id="Path_892" data-name="Path 892" d="M431.132,208.012a2.919,2.919,0,1,1-2.92-2.92,2.92,2.92,0,0,1,2.92,2.92" transform="translate(72.615 24.504)" fill="#ffd300"/>
    <path id="Path_893" data-name="Path 893" d="M431.174,207.987a2.92,2.92,0,1,1-2.922-2.92,2.921,2.921,0,0,1,2.922,2.92" transform="translate(72.647 24.484)" fill="#ffd300"/>
    <path id="Path_894" data-name="Path 894" d="M431.212,207.963a2.919,2.919,0,1,1-2.92-2.922,2.919,2.919,0,0,1,2.92,2.922" transform="translate(72.679 24.463)" fill="#ffd300"/>
    <path id="Path_895" data-name="Path 895" d="M431.253,207.937a2.92,2.92,0,1,1-2.92-2.92,2.921,2.921,0,0,1,2.92,2.92" transform="translate(72.711 24.443)" fill="#ffd300"/>
    <path id="Path_896" data-name="Path 896" d="M431.292,207.913a2.92,2.92,0,1,1-2.922-2.922,2.922,2.922,0,0,1,2.922,2.922" transform="translate(72.742 24.422)" fill="#ffd300"/>
    <path id="Path_897" data-name="Path 897" d="M431.33,207.89a2.92,2.92,0,1,1-2.922-2.924,2.919,2.919,0,0,1,2.922,2.924" transform="translate(72.773 24.402)" fill="#ffd300"/>
    <path id="Path_898" data-name="Path 898" d="M431.369,207.864a2.922,2.922,0,1,1-2.92-2.922,2.922,2.922,0,0,1,2.92,2.922" transform="translate(72.802 24.383)" fill="#ffd300"/>
    <path id="Path_899" data-name="Path 899" d="M431.406,207.838a2.922,2.922,0,1,1-2.922-2.92,2.922,2.922,0,0,1,2.922,2.92" transform="translate(72.832 24.363)" fill="#ffd300"/>
    <path id="Path_900" data-name="Path 900" d="M431.441,207.814a2.92,2.92,0,1,1-2.92-2.92,2.922,2.922,0,0,1,2.92,2.92" transform="translate(72.862 24.344)" fill="#ffd300"/>
    <path id="Path_901" data-name="Path 901" d="M431.475,207.791a2.919,2.919,0,1,1-2.92-2.922,2.92,2.92,0,0,1,2.92,2.922" transform="translate(72.891 24.324)" fill="#ffd300"/>
    <path id="Path_902" data-name="Path 902" d="M431.51,207.765a2.919,2.919,0,1,1-2.92-2.92,2.92,2.92,0,0,1,2.92,2.92" transform="translate(72.92 24.305)" fill="#ffd300"/>
    <path id="Path_903" data-name="Path 903" d="M431.544,207.743a2.919,2.919,0,1,1-2.92-2.922,2.92,2.92,0,0,1,2.92,2.922" transform="translate(72.947 24.285)" fill="#ffd300"/>
    <path id="Path_904" data-name="Path 904" d="M431.58,207.719a2.92,2.92,0,1,1-2.922-2.922,2.921,2.921,0,0,1,2.922,2.922" transform="translate(72.974 24.266)" fill="#ffd300"/>
    <path id="Path_905" data-name="Path 905" d="M431.613,207.7a2.92,2.92,0,1,1-2.92-2.924,2.92,2.92,0,0,1,2.92,2.924" transform="translate(73.001 24.247)" fill="#ffd300"/>
    <path id="Path_906" data-name="Path 906" d="M431.644,207.672a2.919,2.919,0,1,1-2.92-2.922,2.92,2.92,0,0,1,2.92,2.922" transform="translate(73.027 24.228)" fill="#ffd300"/>
    <path id="Path_907" data-name="Path 907" d="M431.676,207.648a2.919,2.919,0,1,1-2.92-2.92,2.92,2.92,0,0,1,2.92,2.92" transform="translate(73.053 24.21)" fill="#ffd300"/>
    <path id="Path_908" data-name="Path 908" d="M431.709,207.625a2.92,2.92,0,1,1-2.922-2.92,2.921,2.921,0,0,1,2.922,2.92" transform="translate(73.078 24.192)" fill="#ffd300"/>
    <path id="Path_909" data-name="Path 909" d="M431.74,207.6a2.921,2.921,0,1,1-2.922-2.922,2.924,2.924,0,0,1,2.922,2.922" transform="translate(73.102 24.172)" fill="#ffd300"/>
    <path id="Path_910" data-name="Path 910" d="M431.77,207.58a2.92,2.92,0,1,1-2.922-2.92,2.922,2.922,0,0,1,2.922,2.92" transform="translate(73.127 24.156)" fill="#ffd300"/>
    <path id="Path_911" data-name="Path 911" d="M431.8,207.557a2.92,2.92,0,1,1-2.92-2.92,2.919,2.919,0,0,1,2.92,2.92" transform="translate(73.151 24.137)" fill="#ffd300"/>
    <path id="Path_912" data-name="Path 912" d="M431.828,207.535a2.92,2.92,0,1,1-2.922-2.92,2.923,2.923,0,0,1,2.922,2.92" transform="translate(73.174 24.119)" fill="#ffd300"/>
    <path id="Path_913" data-name="Path 913" d="M431.855,207.515a2.919,2.919,0,1,1-2.92-2.922,2.921,2.921,0,0,1,2.92,2.922" transform="translate(73.198 24.102)" fill="#ffd300"/>
    <path id="Path_914" data-name="Path 914" d="M431.884,207.492a2.92,2.92,0,1,1-2.922-2.92,2.921,2.921,0,0,1,2.922,2.92" transform="translate(73.219 24.085)" fill="#ffd300"/>
    <path id="Path_915" data-name="Path 915" d="M431.911,207.471a2.92,2.92,0,1,1-2.922-2.92,2.921,2.921,0,0,1,2.922,2.92" transform="translate(73.241 24.068)" fill="#ffd300"/>
    <path id="Path_916" data-name="Path 916" d="M431.936,207.45a2.919,2.919,0,1,1-2.92-2.92,2.919,2.919,0,0,1,2.92,2.92" transform="translate(73.263 24.051)" fill="#ffd300"/>
    <path id="Path_917" data-name="Path 917" d="M431.962,207.431a2.919,2.919,0,1,1-2.92-2.922,2.919,2.919,0,0,1,2.92,2.922" transform="translate(73.284 24.034)" fill="#ffd300"/>
    <path id="Path_918" data-name="Path 918" d="M431.99,207.409a2.922,2.922,0,1,1-2.92-2.92,2.922,2.922,0,0,1,2.92,2.92" transform="translate(73.302 24.018)" fill="#ffd300"/>
    <path id="Path_919" data-name="Path 919" d="M432.012,207.389a2.919,2.919,0,1,1-2.92-2.92,2.919,2.919,0,0,1,2.92,2.92" transform="translate(73.324 24.002)" fill="#ffd300"/>
    <path id="Path_920" data-name="Path 920" d="M432.039,207.37a2.922,2.922,0,1,1-2.924-2.922,2.921,2.921,0,0,1,2.924,2.922" transform="translate(73.342 23.985)" fill="#ffd300"/>
    <path id="Path_921" data-name="Path 921" d="M432.061,207.35a2.92,2.92,0,1,1-2.922-2.92,2.922,2.922,0,0,1,2.922,2.92" transform="translate(73.362 23.97)" fill="#ffd300"/>
    <path id="Path_922" data-name="Path 922" d="M432.084,207.332a2.92,2.92,0,1,1-2.922-2.922,2.922,2.922,0,0,1,2.922,2.922" transform="translate(73.38 23.954)" fill="#ffd300"/>
    <path id="Path_923" data-name="Path 923" d="M432.106,207.313a2.92,2.92,0,1,1-2.922-2.922,2.922,2.922,0,0,1,2.922,2.922" transform="translate(73.398 23.939)" fill="#ffd300"/>
    <path id="Path_924" data-name="Path 924" d="M432.127,207.3a2.92,2.92,0,1,1-2.92-2.922,2.92,2.92,0,0,1,2.92,2.922" transform="translate(73.415 23.924)" fill="#ffd300"/>
    <path id="Path_925" data-name="Path 925" d="M432.147,207.276a2.919,2.919,0,1,1-2.92-2.92,2.921,2.921,0,0,1,2.92,2.92" transform="translate(73.433 23.91)" fill="#ffd300"/>
    <path id="Path_926" data-name="Path 926" d="M432.167,207.258a2.919,2.919,0,1,1-2.92-2.92,2.92,2.92,0,0,1,2.92,2.92" transform="translate(73.449 23.896)" fill="#ffd300"/>
    <path id="Path_927" data-name="Path 927" d="M432.187,207.242a2.919,2.919,0,1,1-2.92-2.922,2.92,2.92,0,0,1,2.92,2.922" transform="translate(73.465 23.881)" fill="#ffd300"/>
    <path id="Path_928" data-name="Path 928" d="M432.209,207.224a2.921,2.921,0,1,1-2.922-2.92,2.922,2.922,0,0,1,2.922,2.92" transform="translate(73.48 23.869)" fill="#ffd300"/>
    <path id="Path_929" data-name="Path 929" d="M432.226,207.207a2.92,2.92,0,1,1-2.92-2.92,2.923,2.923,0,0,1,2.92,2.92" transform="translate(73.495 23.855)" fill="#ffd300"/>
    <path id="Path_930" data-name="Path 930" d="M432.244,207.191a2.92,2.92,0,1,1-2.922-2.92,2.922,2.922,0,0,1,2.922,2.92" transform="translate(73.509 23.842)" fill="#ffd300"/>
    <path id="Path_931" data-name="Path 931" d="M432.261,207.177a2.92,2.92,0,1,1-2.92-2.922,2.921,2.921,0,0,1,2.92,2.922" transform="translate(73.523 23.829)" fill="#ffd300"/>
    <path id="Path_932" data-name="Path 932" d="M432.278,207.16a2.92,2.92,0,1,1-2.92-2.92,2.922,2.922,0,0,1,2.92,2.92" transform="translate(73.537 23.817)" fill="#ffd300"/>
    <path id="Path_933" data-name="Path 933" d="M432.292,207.147a2.919,2.919,0,1,1-2.92-2.922,2.919,2.919,0,0,1,2.92,2.922" transform="translate(73.55 23.805)" fill="#ffd300"/>
    <path id="Path_934" data-name="Path 934" d="M432.308,207.131a2.919,2.919,0,1,1-2.92-2.92,2.921,2.921,0,0,1,2.92,2.92" transform="translate(73.563 23.794)" fill="#ffd300"/>
    <path id="Path_935" data-name="Path 935" d="M432.324,207.119a2.92,2.92,0,1,1-2.92-2.922,2.92,2.92,0,0,1,2.92,2.922" transform="translate(73.574 23.782)" fill="#ffd300"/>
    <path id="Path_936" data-name="Path 936" d="M432.337,207.1a2.919,2.919,0,1,1-2.92-2.92,2.92,2.92,0,0,1,2.92,2.92" transform="translate(73.586 23.772)" fill="#ffd300"/>
    <path id="Path_937" data-name="Path 937" d="M432.351,207.091a2.919,2.919,0,1,1-2.92-2.92,2.922,2.922,0,0,1,2.92,2.92" transform="translate(73.597 23.761)" fill="#ffd300"/>
    <path id="Path_938" data-name="Path 938" d="M432.365,207.078a2.92,2.92,0,1,1-2.92-2.92,2.922,2.922,0,0,1,2.92,2.92" transform="translate(73.607 23.751)" fill="#ffd300"/>
    <path id="Path_939" data-name="Path 939" d="M432.376,207.068a2.919,2.919,0,1,1-2.92-2.922,2.92,2.92,0,0,1,2.92,2.922" transform="translate(73.618 23.741)" fill="#ffd300"/>
    <path id="Path_940" data-name="Path 940" d="M432.388,207.055a2.919,2.919,0,1,1-2.92-2.92,2.92,2.92,0,0,1,2.92,2.92" transform="translate(73.627 23.732)" fill="#ffd300"/>
    <path id="Path_941" data-name="Path 941" d="M432.4,207.045a2.921,2.921,0,1,1-2.922-2.922,2.922,2.922,0,0,1,2.922,2.922" transform="translate(73.635 23.723)" fill="#ffd300"/>
    <path id="Path_942" data-name="Path 942" d="M432.411,207.035a2.92,2.92,0,1,1-2.922-2.922,2.921,2.921,0,0,1,2.922,2.922" transform="translate(73.644 23.715)" fill="#ffd300"/>
    <path id="Path_943" data-name="Path 943" d="M432.421,207.024a2.92,2.92,0,1,1-2.92-2.92,2.919,2.919,0,0,1,2.92,2.92" transform="translate(73.652 23.707)" fill="#ffd300"/>
    <path id="Path_944" data-name="Path 944" d="M432.429,207.015a2.919,2.919,0,1,1-2.92-2.922,2.92,2.92,0,0,1,2.92,2.922" transform="translate(73.66 23.699)" fill="#ffd300"/>
    <path id="Path_945" data-name="Path 945" d="M432.438,207.005a2.919,2.919,0,1,1-2.92-2.92,2.921,2.921,0,0,1,2.92,2.92" transform="translate(73.667 23.692)" fill="#ffd300"/>
    <path id="Path_946" data-name="Path 946" d="M432.448,207a2.921,2.921,0,1,1-2.922-2.92,2.922,2.922,0,0,1,2.922,2.92" transform="translate(73.673 23.686)" fill="#ffd300"/>
    <path id="Path_947" data-name="Path 947" d="M432.455,206.992a2.92,2.92,0,1,1-2.922-2.924,2.921,2.921,0,0,1,2.922,2.924" transform="translate(73.68 23.678)" fill="#ffd300"/>
    <path id="Path_948" data-name="Path 948" d="M432.462,206.982a2.92,2.92,0,1,1-2.922-2.92,2.921,2.921,0,0,1,2.922,2.92" transform="translate(73.685 23.674)" fill="#ffd300"/>
    <path id="Path_949" data-name="Path 949" d="M432.467,206.975a2.919,2.919,0,1,1-2.92-2.92,2.921,2.921,0,0,1,2.92,2.92" transform="translate(73.691 23.668)" fill="#ffd300"/>
    <path id="Path_950" data-name="Path 950" d="M432.473,206.972a2.919,2.919,0,1,1-2.92-2.924,2.918,2.918,0,0,1,2.92,2.924" transform="translate(73.696 23.662)" fill="#ffd300"/>
    <path id="Path_951" data-name="Path 951" d="M432.478,206.965a2.919,2.919,0,1,1-2.92-2.922,2.92,2.92,0,0,1,2.92,2.922" transform="translate(73.7 23.658)" fill="#ffd300"/>
    <path id="Path_952" data-name="Path 952" d="M432.483,206.959a2.919,2.919,0,1,1-2.92-2.92,2.922,2.922,0,0,1,2.92,2.92" transform="translate(73.704 23.655)" fill="#ffd300"/>
    <path id="Path_953" data-name="Path 953" d="M432.488,206.955a2.92,2.92,0,1,1-2.92-2.92,2.922,2.922,0,0,1,2.92,2.92" transform="translate(73.706 23.652)" fill="#ffd300"/>
    <path id="Path_954" data-name="Path 954" d="M432.491,206.952a2.92,2.92,0,1,1-2.92-2.922,2.921,2.921,0,0,1,2.92,2.922" transform="translate(73.709 23.648)" fill="#ffd300"/>
    <path id="Path_955" data-name="Path 955" d="M432.494,206.95a2.92,2.92,0,1,1-2.922-2.922,2.919,2.919,0,0,1,2.922,2.922" transform="translate(73.711 23.646)" fill="#ffd300"/>
    <path id="Path_956" data-name="Path 956" d="M432.5,206.946a2.92,2.92,0,1,1-2.922-2.92,2.921,2.921,0,0,1,2.922,2.92" transform="translate(73.713 23.644)" fill="#ffd300"/>
    <path id="Path_957" data-name="Path 957" d="M432.5,206.947a2.92,2.92,0,1,1-2.922-2.924,2.92,2.92,0,0,1,2.922,2.924" transform="translate(73.714 23.642)" fill="#ffd300"/>
    <path id="Path_958" data-name="Path 958" d="M432.5,206.945a2.921,2.921,0,1,1-2.922-2.922,2.922,2.922,0,0,1,2.922,2.922" transform="translate(73.714 23.642)" fill="#ffd300"/>
    <path id="Path_959" data-name="Path 959" d="M432.5,206.943a2.92,2.92,0,1,1-2.922-2.92,2.921,2.921,0,0,1,2.922,2.92" transform="translate(73.715 23.642)" fill="#ffd300"/>
  </g>
</svg>
